<?xml version="1.0" encoding="utf-8"?>
<!-- Generator: Adobe Illustrator 24.0.0, SVG Export Plug-In . SVG Version: 6.00 Build 0)  -->
<svg version="1.1" id="图层_1" xmlns="http://www.w3.org/2000/svg" xmlns:xlink="http://www.w3.org/1999/xlink" x="0px" y="0px"
	 viewBox="0 0 2313.1 2313.1" style="enable-background:new 0 0 2313.1 2313.1;" xml:space="preserve">
<style type="text/css">
	.st0{opacity:0.6;fill:#FFFFFF;enable-background:new    ;}
</style>
<path class="st0" d="M1156.6,2194.1h-0.6v-2h0.6c1.1,0,2.3,0,3.4,0v2C1158.8,2194.1,1157.7,2194.1,1156.6,2194.1z M1147,2194
	c-1.3,0-2.7,0-4,0v-2c1.3,0,2.7,0,4,0V2194z M1169,2194v-2c1.3,0,2.7,0,4-0.1v2C1171.6,2194,1170.3,2194,1169,2194z M1134,2193.9
	c-1.3,0-2.7-0.1-4-0.1l0.1-2c1.3,0,2.7,0.1,4,0.1L1134,2193.9z M1182,2193.8v-2c1.3,0,2.7-0.1,4-0.1l0.1,2
	C1184.6,2193.7,1183.3,2193.8,1182,2193.8z M1120.9,2193.5c-1.3,0-2.7-0.1-4-0.1l0.1-2c1.3,0,2.7,0.1,4,0.1L1120.9,2193.5z
	 M1194.9,2193.4l-0.1-2c1.3,0,2.7-0.1,4-0.2l0.1,2C1197.6,2193.3,1196.3,2193.3,1194.9,2193.4z M1107.9,2193c-1.3-0.1-2.7-0.1-4-0.2
	l0.1-2c1.3,0.1,2.7,0.1,4,0.2L1107.9,2193z M1207.9,2192.8l-0.1-2c1.3-0.1,2.7-0.1,4-0.2l0.1,2
	C1210.6,2192.7,1209.3,2192.8,1207.9,2192.8z M1094.9,2192.3c-1.3-0.1-2.7-0.2-4-0.2l0.1-2c1.3,0.1,2.7,0.2,4,0.2L1094.9,2192.3z
	 M1220.9,2192.1l-0.1-2c1.3-0.1,2.7-0.2,4-0.3l0.1,2C1223.6,2192,1222.3,2192,1220.9,2192.1z M1082,2191.5c-1.3-0.1-2.7-0.2-4-0.3
	l0.1-2c1.3,0.1,2.7,0.2,4,0.3L1082,2191.5z M1233.9,2191.3l-0.1-2c1.3-0.1,2.7-0.2,4-0.3l0.2,2
	C1236.6,2191.1,1235.2,2191.2,1233.9,2191.3z M1069,2190.4c-1.3-0.1-2.7-0.2-4-0.3l0.2-2c1.3,0.1,2.7,0.2,4,0.3L1069,2190.4z
	 M1246.9,2190.2l-0.2-2c1.3-0.1,2.7-0.2,4-0.4l0.2,2C1249.5,2190,1248.2,2190.1,1246.9,2190.2z M1056,2189.3c-1.3-0.1-2.7-0.3-4-0.4
	l0.2-2c1.3,0.1,2.7,0.3,4,0.4L1056,2189.3z M1259.8,2189l-0.2-2c1.3-0.1,2.7-0.3,4-0.4l0.2,2
	C1262.5,2188.8,1261.2,2188.9,1259.8,2189z M1043.1,2188c-1.3-0.1-2.7-0.3-4-0.4l0.2-2c1.3,0.1,2.6,0.3,4,0.4L1043.1,2188z
	 M1272.8,2187.7l-0.2-2c1.3-0.1,2.6-0.3,4-0.4l0.2,2C1275.4,2187.4,1274.1,2187.5,1272.8,2187.7z M1030.2,2186.5
	c-1.3-0.2-2.6-0.3-4-0.5l0.2-2c1.3,0.2,2.6,0.3,4,0.5L1030.2,2186.5z M1285.7,2186.1l-0.2-2c1.3-0.2,2.6-0.3,4-0.5l0.3,2
	C1288.3,2185.8,1287,2186,1285.7,2186.1z M1017.2,2184.8c-1.3-0.2-2.6-0.4-4-0.5l0.3-2c1.3,0.2,2.6,0.4,4,0.5L1017.2,2184.8z
	 M1298.6,2184.5l-0.3-2c1.3-0.2,2.6-0.4,4-0.5l0.3,2C1301.2,2184.1,1299.9,2184.3,1298.6,2184.5z M1004.4,2183
	c-1.3-0.2-2.6-0.4-4-0.6l0.3-2c1.3,0.2,2.6,0.4,4,0.6L1004.4,2183z M1311.5,2182.6l-0.3-2c1.3-0.2,2.6-0.4,4-0.6l0.3,2
	C1314.1,2182.2,1312.8,2182.4,1311.5,2182.6z M991.5,2181c-1.3-0.2-2.6-0.4-4-0.6l0.3-2c1.3,0.2,2.6,0.4,3.9,0.6L991.5,2181z
	 M1324.3,2180.6l-0.3-2c1.3-0.2,2.6-0.4,3.9-0.6l0.3,2C1327,2180.2,1325.7,2180.4,1324.3,2180.6z M978.7,2178.9
	c-1.3-0.2-2.6-0.5-3.9-0.7l0.3-2c1.3,0.2,2.6,0.5,3.9,0.7L978.7,2178.9z M1337.2,2178.4l-0.3-2c1.3-0.2,2.6-0.5,3.9-0.7l0.4,2
	C1339.8,2178,1338.5,2178.2,1337.2,2178.4z M965.9,2176.6c-1.3-0.2-2.6-0.5-3.9-0.7l0.4-2c1.3,0.2,2.6,0.5,3.9,0.7L965.9,2176.6z
	 M1350,2176.1l-0.4-2c1.3-0.2,2.6-0.5,3.9-0.7l0.4,2C1352.6,2175.6,1351.3,2175.9,1350,2176.1z M953.1,2174.1
	c-1.3-0.3-2.6-0.5-3.9-0.8l0.4-2c1.3,0.3,2.6,0.5,3.9,0.8L953.1,2174.1z M1362.7,2173.6l-0.4-2c1.3-0.3,2.6-0.5,3.9-0.8l0.4,2
	C1365.4,2173.1,1364,2173.3,1362.7,2173.6z M940.3,2171.5c-1.3-0.3-2.6-0.6-3.9-0.8l0.4-2c1.3,0.3,2.6,0.6,3.9,0.8L940.3,2171.5z
	 M1375.5,2171l-0.4-2c1.3-0.3,2.6-0.6,3.9-0.8l0.4,2C1378.1,2170.4,1376.8,2170.7,1375.5,2171z M927.6,2168.7
	c-1.3-0.3-2.6-0.6-3.9-0.9l0.4-1.9c1.3,0.3,2.6,0.6,3.9,0.9L927.6,2168.7z M1388.2,2168.1l-0.4-1.9c1.3-0.3,2.6-0.6,3.9-0.9l0.5,1.9
	C1390.8,2167.5,1389.5,2167.8,1388.2,2168.1z M914.9,2165.8c-1.3-0.3-2.6-0.6-3.9-0.9l0.5-1.9c1.3,0.3,2.6,0.6,3.9,0.9L914.9,2165.8
	z M1400.9,2165.2l-0.5-1.9c1.3-0.3,2.6-0.6,3.9-0.9l0.5,1.9C1403.4,2164.5,1402.1,2164.9,1400.9,2165.2z M902.3,2162.7
	c-1.3-0.3-2.6-0.7-3.9-1l0.5-1.9c1.3,0.3,2.6,0.7,3.9,1L902.3,2162.7z M1413.5,2162l-0.5-1.9c1.3-0.3,2.6-0.7,3.9-1l0.5,1.9
	C1416.1,2161.4,1414.8,2161.7,1413.5,2162z M889.7,2159.5c-1.3-0.3-2.6-0.7-3.9-1l0.5-1.9c1.3,0.3,2.6,0.7,3.9,1L889.7,2159.5z
	 M1426.1,2158.7l-0.5-1.9c1.3-0.3,2.6-0.7,3.9-1l0.5,1.9C1428.6,2158.1,1427.4,2158.4,1426.1,2158.7z M877.1,2156
	c-1.3-0.4-2.6-0.7-3.9-1.1l0.5-1.9c1.3,0.4,2.6,0.7,3.8,1.1L877.1,2156z M1438.6,2155.3l-0.5-1.9c1.3-0.4,2.6-0.7,3.8-1.1l0.5,1.9
	C1441.2,2154.6,1439.9,2154.9,1438.6,2155.3z M864.6,2152.5c-1.3-0.4-2.6-0.8-3.8-1.1l0.6-1.9c1.3,0.4,2.6,0.8,3.8,1.1L864.6,2152.5
	z M1451.1,2151.7l-0.6-1.9c1.3-0.4,2.6-0.8,3.8-1.1l0.6,1.9C1453.7,2150.9,1452.4,2151.3,1451.1,2151.7z M852.2,2148.7
	c-1.3-0.4-2.6-0.8-3.8-1.2l0.6-1.9c1.3,0.4,2.6,0.8,3.8,1.2L852.2,2148.7z M1463.6,2147.9l-0.6-1.9c1.3-0.4,2.5-0.8,3.8-1.2l0.6,1.9
	C1466.1,2147.1,1464.9,2147.5,1463.6,2147.9z M839.7,2144.8c-1.3-0.4-2.6-0.8-3.8-1.2l0.6-1.9c1.3,0.4,2.5,0.8,3.8,1.2L839.7,2144.8
	z M1476,2144l-0.6-1.9c1.3-0.4,2.5-0.8,3.8-1.2l0.6,1.9C1478.5,2143.2,1477.3,2143.6,1476,2144z M827.3,2140.7
	c-1.3-0.4-2.5-0.9-3.8-1.3l0.6-1.9c1.3,0.4,2.5,0.9,3.8,1.3L827.3,2140.7z M1488.3,2139.9l-0.6-1.9c1.3-0.4,2.5-0.9,3.8-1.3l0.6,1.9
	C1490.9,2139.1,1489.6,2139.5,1488.3,2139.9z M814.9,2136.5c-1.3-0.4-2.5-0.9-3.8-1.3l0.7-1.9c1.3,0.4,2.5,0.9,3.8,1.3L814.9,2136.5
	z M1500.6,2135.7l-0.7-1.9c1.3-0.4,2.5-0.9,3.8-1.3l0.7,1.9C1503.2,2134.8,1501.9,2135.2,1500.6,2135.7z M802.6,2132.1
	c-1.3-0.5-2.5-0.9-3.8-1.4l0.7-1.9c1.3,0.5,2.5,0.9,3.8,1.4L802.6,2132.1z M1512.9,2131.3l-0.7-1.9c1.3-0.5,2.5-0.9,3.8-1.4l0.7,1.9
	C1515.4,2130.4,1514.1,2130.8,1512.9,2131.3z M790.3,2127.6c-1.3-0.5-2.5-0.9-3.8-1.4l0.7-1.9c1.2,0.5,2.5,1,3.8,1.4L790.3,2127.6z
	 M1525.1,2126.7l-0.7-1.9c1.2-0.5,2.5-0.9,3.7-1.4l0.7,1.9C1527.6,2125.8,1526.3,2126.3,1525.1,2126.7z M778.2,2122.9
	c-1.2-0.5-2.5-1-3.7-1.5l0.7-1.9c1.2,0.5,2.5,1,3.7,1.5L778.2,2122.9z M1537.2,2122l-0.7-1.9c1.2-0.5,2.5-1,3.7-1.5l0.7,1.9
	C1539.7,2121.1,1538.5,2121.5,1537.2,2122z M766,2118.1c-1.2-0.5-2.5-1-3.7-1.5l0.8-1.8c1.2,0.5,2.5,1,3.7,1.5L766,2118.1z
	 M1549.3,2117.2l-0.8-1.9c1.2-0.5,2.5-1,3.7-1.5l0.8,1.8C1551.8,2116.2,1550.5,2116.7,1549.3,2117.2z M754,2113.1
	c-1.2-0.5-2.5-1-3.7-1.6l0.8-1.8c1.2,0.5,2.5,1,3.7,1.6L754,2113.1z M1561.3,2112.2l-0.8-1.8c1.2-0.5,2.4-1,3.7-1.6l0.8,1.8
	C1563.7,2111.2,1562.5,2111.7,1561.3,2112.2z M742,2107.9c-1.2-0.5-2.5-1.1-3.7-1.6l0.8-1.8c1.2,0.5,2.4,1.1,3.7,1.6L742,2107.9z
	 M1573.2,2107.1l-0.8-1.8c1.2-0.5,2.4-1.1,3.6-1.6l0.8,1.8C1575.6,2106,1574.4,2106.5,1573.2,2107.1z M730,2102.6
	c-1.2-0.6-2.4-1.1-3.7-1.7l0.8-1.8c1.2,0.6,2.4,1.1,3.6,1.7L730,2102.6z M1585,2101.8l-0.8-1.8c1.2-0.5,2.4-1.1,3.6-1.7l0.8,1.8
	C1587.4,2100.7,1586.2,2101.2,1585,2101.8z M718.2,2097.2c-1.2-0.6-2.4-1.1-3.6-1.7l0.9-1.8c1.2,0.6,2.4,1.1,3.6,1.7L718.2,2097.2z
	 M1596.8,2096.3l-0.8-1.8c1.2-0.6,2.4-1.1,3.6-1.7l0.9,1.8C1599.2,2095.2,1598,2095.8,1596.8,2096.3z M706.4,2091.6
	c-1.2-0.6-2.4-1.2-3.6-1.8l0.9-1.8c1.2,0.6,2.4,1.2,3.6,1.7L706.4,2091.6z M1608.5,2090.8l-0.9-1.8c1.2-0.6,2.4-1.2,3.6-1.7l0.9,1.8
	C1610.9,2089.6,1609.7,2090.2,1608.5,2090.8z M694.7,2085.9c-1.2-0.6-2.4-1.2-3.6-1.8l0.9-1.8c1.2,0.6,2.4,1.2,3.6,1.8L694.7,2085.9
	z M1620.1,2085l-0.9-1.8c1.2-0.6,2.4-1.2,3.6-1.8l0.9,1.8C1622.5,2083.9,1621.3,2084.4,1620.1,2085z M683,2080
	c-1.2-0.6-2.4-1.2-3.6-1.8l0.9-1.8c1.2,0.6,2.4,1.2,3.6,1.8L683,2080z M1631.7,2079.2l-0.9-1.8c1.2-0.6,2.4-1.2,3.5-1.8l0.9,1.8
	C1634,2077.9,1632.8,2078.6,1631.7,2079.2z M671.5,2073.9c-1.2-0.6-2.4-1.3-3.5-1.9l0.9-1.8c1.2,0.6,2.4,1.3,3.5,1.9L671.5,2073.9z
	 M1643.1,2073.1l-0.9-1.8c1.2-0.6,2.3-1.2,3.5-1.9l0.9,1.8C1645.5,2071.9,1644.3,2072.5,1643.1,2073.1z M660,2067.8
	c-1.2-0.6-2.3-1.3-3.5-1.9l1-1.8c1.2,0.6,2.3,1.3,3.5,1.9L660,2067.8z M1654.6,2067l-1-1.8c1.2-0.6,2.3-1.3,3.5-1.9l1,1.8
	C1656.9,2065.7,1655.7,2066.3,1654.6,2067z M648.6,2061.4c-1.2-0.7-2.3-1.3-3.5-2l1-1.7c1.2,0.7,2.3,1.3,3.5,2L648.6,2061.4z
	 M1665.9,2060.7l-1-1.7c1.2-0.7,2.3-1.3,3.5-2l1,1.7C1668.2,2059.4,1667.1,2060,1665.9,2060.7z M637.3,2055c-1.2-0.7-2.3-1.3-3.5-2
	l1-1.7c1.2,0.7,2.3,1.3,3.5,2L637.3,2055z M1677.2,2054.2l-1-1.7c1.1-0.7,2.3-1.3,3.4-2l1,1.7
	C1679.5,2052.9,1678.3,2053.6,1677.2,2054.2z M626,2048.4c-1.1-0.7-2.3-1.4-3.4-2.1l1-1.7c1.1,0.7,2.3,1.4,3.4,2.1L626,2048.4z
	 M1688.3,2047.6l-1-1.7c1.1-0.7,2.3-1.4,3.4-2.1l1,1.7C1690.6,2046.3,1689.5,2047,1688.3,2047.6z M614.9,2041.6
	c-1.1-0.7-2.3-1.4-3.4-2.1l1.1-1.7c1.1,0.7,2.3,1.4,3.4,2.1L614.9,2041.6z M1699.4,2040.9l-1-1.7c1.1-0.7,2.3-1.4,3.4-2.1l1.1,1.7
	C1701.7,2039.5,1700.6,2040.2,1699.4,2040.9z M603.8,2034.7c-1.1-0.7-2.3-1.4-3.4-2.1l1.1-1.7c1.1,0.7,2.3,1.4,3.4,2.1L603.8,2034.7
	z M1710.4,2034l-1.1-1.7c1.1-0.7,2.2-1.4,3.4-2.1l1.1,1.7C1712.7,2032.6,1711.6,2033.3,1710.4,2034z M592.8,2027.7
	c-1.1-0.7-2.2-1.5-3.4-2.2l1.1-1.7c1.1,0.7,2.2,1.5,3.4,2.2L592.8,2027.7z M1721.4,2027l-1.1-1.7c1.1-0.7,2.2-1.5,3.3-2.2l1.1,1.7
	C1723.6,2025.6,1722.5,2026.3,1721.4,2027z M581.9,2020.6c-1.1-0.7-2.2-1.5-3.3-2.2l1.1-1.7c1.1,0.7,2.2,1.5,3.3,2.2L581.9,2020.6z
	 M1732.2,2019.9l-1.1-1.7c1.1-0.7,2.2-1.5,3.3-2.2l1.1,1.7C1734.4,2018.4,1733.3,2019.1,1732.2,2019.9z M571.1,2013.3
	c-1.1-0.8-2.2-1.5-3.3-2.3l1.1-1.6c1.1,0.8,2.2,1.5,3.3,2.3L571.1,2013.3z M1743,2012.6l-1.1-1.6c1.1-0.8,2.2-1.5,3.3-2.3l1.1,1.6
	C1745.2,2011.1,1744.1,2011.8,1743,2012.6z M560.4,2005.8c-1.1-0.8-2.2-1.5-3.3-2.3l1.2-1.6c1.1,0.8,2.2,1.5,3.3,2.3L560.4,2005.8z
	 M1753.6,2005.2l-1.2-1.6c1.1-0.8,2.2-1.5,3.3-2.3l1.2,1.6C1755.8,2003.6,1754.7,2004.4,1753.6,2005.2z M549.8,1998.3
	c-1.1-0.8-2.2-1.6-3.2-2.4l1.2-1.6c1.1,0.8,2.2,1.6,3.2,2.3L549.8,1998.3z M1764.2,1997.6l-1.2-1.6c1.1-0.8,2.2-1.6,3.2-2.3l1.2,1.6
	C1766.4,1996.1,1765.3,1996.9,1764.2,1997.6z M539.3,1990.6c-1.1-0.8-2.1-1.6-3.2-2.4l1.2-1.6c1.1,0.8,2.1,1.6,3.2,2.4L539.3,1990.6
	z M1774.7,1990l-1.2-1.6c1.1-0.8,2.1-1.6,3.2-2.4l1.2,1.6C1776.8,1988.4,1775.7,1989.2,1774.7,1990z M528.9,1982.8
	c-1.1-0.8-2.1-1.6-3.2-2.4l1.2-1.6c1.1,0.8,2.1,1.6,3.2,2.4L528.9,1982.8z M1785.1,1982.1l-1.2-1.6c1.1-0.8,2.1-1.6,3.2-2.4l1.2,1.6
	C1787.2,1980.5,1786.1,1981.3,1785.1,1982.1z M518.6,1974.8c-1.1-0.8-2.1-1.6-3.2-2.5l1.2-1.6c1,0.8,2.1,1.6,3.1,2.5L518.6,1974.8z
	 M1795.3,1974.2l-1.2-1.6c1-0.8,2.1-1.6,3.1-2.5l1.2,1.6C1797.4,1972.6,1796.4,1973.4,1795.3,1974.2z M508.4,1966.7
	c-1-0.8-2.1-1.7-3.1-2.5l1.3-1.6c1,0.8,2.1,1.7,3.1,2.5L508.4,1966.7z M1805.5,1966.1l-1.3-1.6c1-0.8,2.1-1.7,3.1-2.5l1.3,1.6
	C1807.6,1964.5,1806.6,1965.3,1805.5,1966.1z M498.3,1958.5c-1-0.8-2.1-1.7-3.1-2.5l1.3-1.5c1,0.9,2.1,1.7,3.1,2.5L498.3,1958.5z
	 M1815.6,1957.9l-1.3-1.5c1-0.8,2.1-1.7,3.1-2.5l1.3,1.5C1817.7,1956.2,1816.6,1957.1,1815.6,1957.9z M488.3,1950.2
	c-1-0.9-2-1.7-3.1-2.6l1.3-1.5c1,0.9,2,1.7,3.1,2.6L488.3,1950.2z M1825.6,1949.6l-1.3-1.5c1-0.9,2-1.7,3-2.6l1.3,1.5
	C1827.6,1947.9,1826.6,1948.7,1825.6,1949.6z M478.4,1941.8c-1-0.9-2-1.7-3-2.6l1.3-1.5c1,0.9,2,1.7,3,2.6L478.4,1941.8z
	 M1835.5,1941.2l-1.3-1.5c1-0.9,2-1.7,3-2.6l1.3,1.5C1837.5,1939.4,1836.5,1940.3,1835.5,1941.2z M468.6,1933.2c-1-0.9-2-1.8-3-2.7
	l1.3-1.5c1,0.9,2,1.8,3,2.7L468.6,1933.2z M1845.2,1932.6l-1.3-1.5c1-0.9,2-1.8,3-2.7l1.3,1.5
	C1847.2,1930.8,1846.2,1931.7,1845.2,1932.6z M458.9,1924.5c-1-0.9-2-1.8-3-2.7l1.4-1.5c1,0.9,2,1.8,3,2.7L458.9,1924.5z
	 M1854.9,1923.9l-1.3-1.5c1-0.9,2-1.8,2.9-2.7l1.4,1.5C1856.9,1922.1,1855.9,1923,1854.9,1923.9z M449.3,1915.7
	c-1-0.9-2-1.8-2.9-2.7l1.4-1.5c1,0.9,1.9,1.8,2.9,2.7L449.3,1915.7z M1864.5,1915.1l-1.4-1.5c1-0.9,1.9-1.8,2.9-2.7l1.4,1.5
	C1866.4,1913.3,1865.5,1914.2,1864.5,1915.1z M439.8,1906.8c-1-0.9-1.9-1.8-2.9-2.8l1.4-1.4c1,0.9,1.9,1.8,2.9,2.8L439.8,1906.8z
	 M1873.9,1906.1l-1.4-1.4c1-0.9,1.9-1.8,2.9-2.8l1.4,1.4C1875.9,1904.3,1874.9,1905.2,1873.9,1906.1z M430.5,1897.7
	c-1-0.9-1.9-1.9-2.9-2.8l1.4-1.4c0.9,0.9,1.9,1.9,2.8,2.8L430.5,1897.7z M1883.3,1897.1l-1.4-1.4c1-0.9,1.9-1.9,2.8-2.8l1.4,1.4
	C1885.2,1895.2,1884.2,1896.2,1883.3,1897.1z M421.3,1888.5c-0.9-0.9-1.9-1.9-2.8-2.8l1.4-1.4c0.9,0.9,1.9,1.9,2.8,2.8L421.3,1888.5
	z M1892.5,1887.9l-1.4-1.4c0.9-0.9,1.9-1.9,2.8-2.8l1.4,1.4C1894.4,1886,1893.4,1887,1892.5,1887.9z M412.1,1879.3
	c-0.9-1-1.9-1.9-2.8-2.9l1.4-1.4c0.9,1,1.9,1.9,2.8,2.9L412.1,1879.3z M1901.6,1878.6l-1.4-1.4c0.9-1,1.9-1.9,2.8-2.9l1.4,1.4
	C1903.5,1876.7,1902.5,1877.7,1901.6,1878.6z M403.1,1869.9c-0.9-1-1.8-1.9-2.7-2.9l1.5-1.4c0.9,1,1.8,1.9,2.7,2.9L403.1,1869.9z
	 M1910.6,1869.2l-1.5-1.4c0.9-1,1.8-1.9,2.7-2.9l1.5,1.4C1912.4,1867.3,1911.5,1868.3,1910.6,1869.2z M394.2,1860.4
	c-0.9-1-1.8-2-2.7-2.9l1.5-1.4c0.9,1,1.8,2,2.7,2.9L394.2,1860.4z M1919.5,1859.7l-1.5-1.4c0.9-1,1.8-2,2.7-2.9l1.5,1.4
	C1921.3,1857.8,1920.4,1858.7,1919.5,1859.7z M385.5,1850.8c-0.9-1-1.8-2-2.7-3l1.5-1.3c0.9,1,1.8,2,2.7,3L385.5,1850.8z
	 M1928.2,1850.1l-1.5-1.3c0.9-1,1.8-2,2.7-3l1.5,1.3C1930,1848.1,1929.1,1849.1,1928.2,1850.1z M376.8,1841.1c-0.9-1-1.8-2-2.6-3
	l1.5-1.3c0.9,1,1.8,2,2.6,3L376.8,1841.1z M1936.9,1840.4l-1.5-1.3c0.9-1,1.8-2,2.6-3l1.5,1.3
	C1938.6,1838.4,1937.8,1839.4,1936.9,1840.4z M368.3,1831.2c-0.9-1-1.7-2-2.6-3l1.5-1.3c0.9,1,1.7,2,2.6,3L368.3,1831.2z
	 M1945.4,1830.5l-1.5-1.3c0.9-1,1.7-2,2.6-3l1.5,1.3C1947.1,1828.5,1946.3,1829.5,1945.4,1830.5z M359.9,1821.3
	c-0.9-1-1.7-2-2.6-3.1l1.5-1.3c0.8,1,1.7,2,2.6,3.1L359.9,1821.3z M1953.8,1820.6l-1.5-1.3c0.9-1,1.7-2,2.6-3.1l1.5,1.3
	C1955.5,1818.5,1954.7,1819.6,1953.8,1820.6z M351.7,1811.3c-0.8-1-1.7-2.1-2.5-3.1l1.6-1.3c0.8,1,1.7,2.1,2.5,3.1L351.7,1811.3z
	 M1962.1,1810.5l-1.6-1.3c0.8-1,1.7-2.1,2.5-3.1l1.6,1.3C1963.8,1808.5,1962.9,1809.5,1962.1,1810.5z M343.5,1801.2
	c-0.8-1-1.7-2.1-2.5-3.1l1.6-1.2c0.8,1,1.6,2.1,2.5,3.1L343.5,1801.2z M1970.2,1800.4l-1.6-1.2c0.8-1,1.7-2.1,2.5-3.1l1.6,1.2
	C1971.9,1798.3,1971.1,1799.3,1970.2,1800.4z M335.5,1790.9c-0.8-1.1-1.6-2.1-2.4-3.2l1.6-1.2c0.8,1.1,1.6,2.1,2.4,3.2L335.5,1790.9
	z M1978.3,1790.1l-1.6-1.2c0.8-1.1,1.6-2.1,2.4-3.2l1.6,1.2C1979.9,1788,1979.1,1789.1,1978.3,1790.1z M327.6,1780.6
	c-0.8-1.1-1.6-2.1-2.4-3.2l1.6-1.2c0.8,1.1,1.6,2.1,2.4,3.2L327.6,1780.6z M1986.2,1779.8l-1.6-1.2c0.8-1.1,1.6-2.1,2.4-3.2l1.6,1.2
	C1987.8,1777.6,1987,1778.7,1986.2,1779.8z M319.9,1770.2c-0.8-1.1-1.6-2.1-2.4-3.2l1.6-1.2c0.8,1.1,1.6,2.1,2.4,3.2L319.9,1770.2z
	 M1993.9,1769.3l-1.6-1.2c0.8-1.1,1.6-2.2,2.4-3.2l1.6,1.2C1995.5,1767.2,1994.7,1768.2,1993.9,1769.3z M312.2,1759.7
	c-0.8-1.1-1.5-2.2-2.3-3.3l1.6-1.2c0.8,1.1,1.5,2.2,2.3,3.2L312.2,1759.7z M2001.6,1758.8l-1.6-1.2c0.8-1.1,1.5-2.2,2.3-3.3l1.6,1.2
	C2003.1,1756.6,2002.3,1757.7,2001.6,1758.8z M304.7,1749.1c-0.8-1.1-1.5-2.2-2.3-3.3l1.6-1.1c0.8,1.1,1.5,2.2,2.3,3.3L304.7,1749.1
	z M2009.1,1748.1l-1.6-1.1c0.8-1.1,1.5-2.2,2.3-3.3l1.6,1.1C2010.6,1745.9,2009.8,1747,2009.1,1748.1z M297.4,1738.4
	c-0.7-1.1-1.5-2.2-2.2-3.3l1.7-1.1c0.7,1.1,1.5,2.2,2.2,3.3L297.4,1738.4z M2016.4,1737.4l-1.7-1.1c0.7-1.1,1.5-2.2,2.2-3.3l1.7,1.1
	C2017.9,1735.2,2017.2,1736.3,2016.4,1737.4z M290.2,1727.6c-0.7-1.1-1.5-2.2-2.2-3.3l1.7-1.1c0.7,1.1,1.5,2.2,2.2,3.3L290.2,1727.6
	z M2023.7,1726.5l-1.7-1.1c0.7-1.1,1.5-2.2,2.2-3.3l1.7,1.1C2025.1,1724.3,2024.4,1725.4,2023.7,1726.5z M283.1,1716.7
	c-0.7-1.1-1.4-2.2-2.2-3.4l1.7-1.1c0.7,1.1,1.4,2.2,2.1,3.4L283.1,1716.7z M2030.8,1715.6l-1.7-1.1c0.7-1.1,1.4-2.2,2.2-3.4l1.7,1.1
	C2032.2,1713.4,2031.5,1714.5,2030.8,1715.6z M276.1,1705.7c-0.7-1.1-1.4-2.3-2.1-3.4l1.7-1.1c0.7,1.1,1.4,2.3,2.1,3.4L276.1,1705.7
	z M2037.7,1704.6l-1.7-1.1c0.7-1.1,1.4-2.3,2.1-3.4l1.7,1.1C2039.1,1702.3,2038.4,1703.5,2037.7,1704.6z M269.3,1694.7
	c-0.7-1.1-1.4-2.3-2.1-3.4l1.7-1c0.7,1.1,1.4,2.3,2.1,3.4L269.3,1694.7z M2044.5,1693.5l-1.7-1c0.7-1.1,1.4-2.3,2.1-3.4l1.7,1
	C2045.9,1691.2,2045.2,1692.3,2044.5,1693.5z M262.6,1683.5c-0.7-1.1-1.4-2.3-2-3.4l1.7-1c0.7,1.1,1.3,2.3,2,3.4L262.6,1683.5z
	 M2051.2,1682.3l-1.7-1c0.7-1.2,1.4-2.3,2-3.5l1.7,1C2052.6,1680,2051.9,1681.1,2051.2,1682.3z M256.1,1672.3
	c-0.7-1.2-1.3-2.3-2-3.5l1.7-1c0.7,1.2,1.3,2.3,2,3.5L256.1,1672.3z M2057.8,1671l-1.7-1c0.7-1.2,1.3-2.3,2-3.5l1.7,1
	C2059.1,1668.7,2058.4,1669.9,2057.8,1671z M249.7,1661c-0.6-1.2-1.3-2.3-1.9-3.5l1.8-1c0.6,1.2,1.3,2.3,1.9,3.5L249.7,1661z
	 M2064.2,1659.7l-1.7-1c0.6-1.2,1.3-2.3,1.9-3.5l1.8,1C2065.5,1657.3,2064.8,1658.5,2064.2,1659.7z M243.5,1649.7
	c-0.6-1.2-1.3-2.3-1.9-3.5l1.8-0.9c0.6,1.2,1.3,2.3,1.9,3.5L243.5,1649.7z M2070.4,1648.2l-1.8-0.9c0.6-1.2,1.3-2.4,1.9-3.5l1.8,0.9
	C2071.7,1645.9,2071.1,1647,2070.4,1648.2z M237.4,1638.2c-0.6-1.2-1.2-2.4-1.8-3.5l1.8-0.9c0.6,1.2,1.2,2.4,1.8,3.5L237.4,1638.2z
	 M2076.6,1636.7l-1.8-0.9c0.6-1.2,1.2-2.4,1.9-3.6l1.8,0.9C2077.8,1634.3,2077.2,1635.5,2076.6,1636.7z M231.4,1626.7
	c-0.6-1.2-1.2-2.4-1.8-3.6l1.8-0.9c0.6,1.2,1.2,2.4,1.8,3.6L231.4,1626.7z M2082.5,1625.1l-1.8-0.9c0.6-1.2,1.2-2.4,1.8-3.6l1.8,0.9
	C2083.7,1622.7,2083.1,1623.9,2082.5,1625.1z M225.6,1615.1c-0.6-1.2-1.2-2.4-1.8-3.6l1.8-0.9c0.6,1.2,1.2,2.4,1.8,3.6L225.6,1615.1
	z M2088.4,1613.4l-1.8-0.9c0.6-1.2,1.2-2.4,1.8-3.6l1.8,0.9C2089.5,1611,2088.9,1612.2,2088.4,1613.4z M219.9,1603.5
	c-0.6-1.2-1.1-2.4-1.7-3.6l1.8-0.9c0.6,1.2,1.1,2.4,1.7,3.6L219.9,1603.5z M2094,1601.7l-1.8-0.9c0.6-1.2,1.1-2.4,1.7-3.6l1.8,0.9
	C2095.2,1599.3,2094.6,1600.5,2094,1601.7z M214.4,1591.7c-0.6-1.2-1.1-2.4-1.7-3.6l1.8-0.8c0.6,1.2,1.1,2.4,1.7,3.6L214.4,1591.7z
	 M2099.6,1589.9l-1.8-0.8c0.6-1.2,1.1-2.4,1.7-3.6l1.8,0.8C2100.7,1587.4,2100.1,1588.6,2099.6,1589.9z M209,1579.9
	c-0.5-1.2-1.1-2.4-1.6-3.6l1.8-0.8c0.5,1.2,1.1,2.4,1.6,3.6L209,1579.9z M2104.9,1578l-1.8-0.8c0.5-1.2,1.1-2.4,1.6-3.7l1.8,0.8
	C2106,1575.5,2105.5,1576.7,2104.9,1578z M203.8,1568.1c-0.5-1.2-1.1-2.4-1.6-3.7l1.8-0.8c0.5,1.2,1,2.4,1.6,3.7L203.8,1568.1z
	 M2110.2,1566l-1.8-0.8c0.5-1.2,1.1-2.5,1.6-3.7l1.8,0.8C2111.2,1563.6,2110.7,1564.8,2110.2,1566z M198.8,1556.1
	c-0.5-1.2-1-2.5-1.5-3.7l1.8-0.8c0.5,1.2,1,2.5,1.5,3.7L198.8,1556.1z M2115.3,1554l-1.8-0.8c0.5-1.2,1-2.5,1.5-3.7l1.8,0.8
	C2116.3,1551.5,2115.8,1552.8,2115.3,1554z M193.8,1544.1c-0.5-1.2-1-2.5-1.5-3.7l1.9-0.7c0.5,1.2,1,2.5,1.5,3.7L193.8,1544.1z
	 M2120.2,1541.9l-1.9-0.7c0.5-1.2,1-2.5,1.5-3.7l1.9,0.7C2121.2,1539.4,2120.7,1540.7,2120.2,1541.9z M189,1532
	c-0.5-1.2-1-2.5-1.4-3.7l1.9-0.7c0.5,1.2,1,2.5,1.4,3.7L189,1532z M2125,1529.7l-1.9-0.7c0.5-1.2,1-2.5,1.4-3.7l1.9,0.7
	C2125.9,1527.2,2125.4,1528.5,2125,1529.7z M184.4,1519.9c-0.5-1.2-0.9-2.5-1.4-3.8l1.9-0.7c0.5,1.2,0.9,2.5,1.4,3.7L184.4,1519.9z
	 M2129.6,1517.5l-1.9-0.7c0.5-1.3,0.9-2.5,1.4-3.8l1.9,0.7C2130.5,1515,2130.1,1516.3,2129.6,1517.5z M179.9,1507.6
	c-0.5-1.3-0.9-2.5-1.3-3.8l1.9-0.7c0.4,1.3,0.9,2.5,1.3,3.8L179.9,1507.6z M2134.1,1505.2l-1.9-0.7c0.4-1.3,0.9-2.5,1.3-3.8l1.9,0.7
	C2135,1502.7,2134.5,1504,2134.1,1505.2z M175.6,1495.4c-0.4-1.3-0.9-2.5-1.3-3.8l1.9-0.6c0.4,1.3,0.9,2.5,1.3,3.8L175.6,1495.4z
	 M2138.4,1492.9l-1.9-0.6c0.4-1.3,0.9-2.5,1.3-3.8l1.9,0.6C2139.2,1490.4,2138.8,1491.6,2138.4,1492.9z M171.4,1483
	c-0.4-1.3-0.8-2.5-1.3-3.8l1.9-0.6c0.4,1.3,0.8,2.5,1.2,3.8L171.4,1483z M2142.5,1480.5l-1.9-0.6c0.4-1.3,0.8-2.5,1.2-3.8l1.9,0.6
	C2143.4,1478,2142.9,1479.3,2142.5,1480.5z M167.4,1470.7c-0.4-1.3-0.8-2.5-1.2-3.8l1.9-0.6c0.4,1.3,0.8,2.5,1.2,3.8L167.4,1470.7z
	 M2146.5,1468.1l-1.9-0.6c0.4-1.3,0.8-2.6,1.2-3.8l1.9,0.6C2147.3,1465.5,2146.9,1466.8,2146.5,1468.1z M163.6,1458.2
	c-0.4-1.3-0.8-2.6-1.2-3.8l1.9-0.6c0.4,1.3,0.8,2.6,1.2,3.8L163.6,1458.2z M2150.4,1455.6l-1.9-0.6c0.4-1.3,0.8-2.6,1.1-3.8l1.9,0.6
	C2151.1,1453,2150.7,1454.3,2150.4,1455.6z M159.9,1445.8c-0.4-1.3-0.7-2.6-1.1-3.8l1.9-0.5c0.4,1.3,0.7,2.6,1.1,3.8L159.9,1445.8z
	 M2154,1443.1l-1.9-0.6c0.4-1.3,0.7-2.6,1.1-3.8l1.9,0.5C2154.8,1440.5,2154.4,1441.8,2154,1443.1z M156.3,1433.2
	c-0.4-1.3-0.7-2.6-1.1-3.9l1.9-0.5c0.3,1.3,0.7,2.6,1.1,3.9L156.3,1433.2z M2157.5,1430.6l-1.9-0.5c0.4-1.3,0.7-2.6,1-3.9l1.9,0.5
	C2158.2,1428,2157.9,1429.3,2157.5,1430.6z M152.9,1420.7c-0.3-1.3-0.7-2.6-1-3.9l1.9-0.5c0.3,1.3,0.7,2.6,1,3.9L152.9,1420.7z
	 M2160.9,1418l-1.9-0.5c0.3-1.3,0.7-2.6,1-3.9l1.9,0.5C2161.6,1415.4,2161.2,1416.7,2160.9,1418z M149.7,1408.1
	c-0.3-1.3-0.6-2.6-1-3.9l1.9-0.5c0.3,1.3,0.6,2.6,1,3.9L149.7,1408.1z M2164.1,1405.4l-1.9-0.5c0.3-1.3,0.6-2.6,0.9-3.9l1.9,0.5
	C2164.7,1402.8,2164.4,1404.1,2164.1,1405.4z M146.7,1395.4c-0.3-1.3-0.6-2.6-0.9-3.9l1.9-0.5c0.3,1.3,0.6,2.6,0.9,3.9L146.7,1395.4
	z M2167.1,1392.7l-1.9-0.5c0.3-1.3,0.6-2.6,0.9-3.9l1.9,0.4C2167.7,1390.1,2167.4,1391.4,2167.1,1392.7z M143.7,1382.7
	c-0.3-1.3-0.6-2.6-0.9-3.9l2-0.4c0.3,1.3,0.6,2.6,0.9,3.9L143.7,1382.7z M2170,1380l-2-0.4c0.3-1.3,0.6-2.6,0.8-3.9l2,0.4
	C2170.5,1377.4,2170.3,1378.7,2170,1380z M141,1370c-0.3-1.3-0.5-2.6-0.8-3.9l2-0.4c0.3,1.3,0.5,2.6,0.8,3.9L141,1370z
	 M2172.7,1367.3l-2-0.4c0.3-1.3,0.5-2.6,0.8-3.9l2,0.4C2173.2,1364.7,2173,1366,2172.7,1367.3z M138.4,1357.3
	c-0.3-1.3-0.5-2.6-0.8-3.9l2-0.4c0.3,1.3,0.5,2.6,0.8,3.9L138.4,1357.3z M2175.2,1354.5l-2-0.4c0.3-1.3,0.5-2.6,0.8-3.9l2,0.4
	C2175.7,1351.9,2175.5,1353.2,2175.2,1354.5z M136,1344.5c-0.2-1.3-0.5-2.6-0.7-3.9l2-0.4c0.2,1.3,0.5,2.6,0.7,3.9L136,1344.5z
	 M2177.6,1341.7l-2-0.4c0.2-1.3,0.5-2.6,0.7-3.9l2,0.3C2178.1,1339.1,2177.9,1340.4,2177.6,1341.7z M133.7,1331.7
	c-0.2-1.3-0.4-2.6-0.7-3.9l2-0.3c0.2,1.3,0.4,2.6,0.7,3.9L133.7,1331.7z M2179.9,1328.9l-2-0.3c0.2-1.3,0.4-2.6,0.7-3.9l2,0.3
	C2180.3,1326.3,2180.1,1327.6,2179.9,1328.9z M131.6,1318.8c-0.2-1.3-0.4-2.6-0.6-4l2-0.3c0.2,1.3,0.4,2.6,0.6,3.9L131.6,1318.8z
	 M2181.9,1316.1l-2-0.3c0.2-1.3,0.4-2.6,0.6-4l2,0.3C2182.3,1313.4,2182.1,1314.8,2181.9,1316.1z M129.7,1306
	c-0.2-1.3-0.4-2.6-0.6-4l2-0.3c0.2,1.3,0.4,2.6,0.6,4L129.7,1306z M2183.8,1303.2l-2-0.3c0.2-1.3,0.4-2.6,0.6-4l2,0.3
	C2184.2,1300.6,2184,1301.9,2183.8,1303.2z M127.9,1293.1c-0.2-1.3-0.3-2.6-0.5-4l2-0.3c0.2,1.3,0.3,2.6,0.5,4L127.9,1293.1z
	 M2185.6,1290.3l-2-0.3c0.2-1.3,0.3-2.6,0.5-4l2,0.2C2185.9,1287.7,2185.7,1289,2185.6,1290.3z M126.3,1280.2
	c-0.2-1.3-0.3-2.7-0.5-4l2-0.2c0.2,1.3,0.3,2.6,0.5,4L126.3,1280.2z M2187.1,1277.4l-2-0.2c0.2-1.3,0.3-2.6,0.5-4l2,0.2
	C2187.4,1274.7,2187.3,1276.1,2187.1,1277.4z M124.9,1267.2c-0.1-1.3-0.3-2.7-0.4-4l2-0.2c0.1,1.3,0.3,2.7,0.4,4L124.9,1267.2z
	 M2188.6,1264.5l-2-0.2c0.1-1.3,0.3-2.6,0.4-4l2,0.2C2188.8,1261.8,2188.7,1263.1,2188.6,1264.5z M123.6,1254.3
	c-0.1-1.3-0.2-2.7-0.4-4l2-0.2c0.1,1.3,0.2,2.7,0.4,4L123.6,1254.3z M2189.8,1251.5l-2-0.2c0.1-1.3,0.2-2.7,0.4-4l2,0.2
	C2190.1,1248.9,2189.9,1250.2,2189.8,1251.5z M122.4,1241.3c-0.1-1.3-0.2-2.7-0.3-4l2-0.2c0.1,1.3,0.2,2.7,0.3,4L122.4,1241.3z
	 M2190.9,1238.5l-2-0.2c0.1-1.3,0.2-2.7,0.3-4l2,0.1C2191.1,1235.9,2191,1237.2,2190.9,1238.5z M121.5,1228.3
	c-0.1-1.3-0.2-2.7-0.3-4l2-0.1c0.1,1.3,0.2,2.7,0.3,4L121.5,1228.3z M2191.8,1225.6l-2-0.1c0.1-1.3,0.2-2.7,0.3-4l2,0.1
	C2192,1222.9,2191.9,1224.2,2191.8,1225.6z M120.7,1215.3c-0.1-1.3-0.1-2.7-0.2-4l2-0.1c0.1,1.3,0.1,2.7,0.2,4L120.7,1215.3z
	 M2192.6,1212.6l-2-0.1c0.1-1.3,0.1-2.7,0.2-4l2,0.1C2192.8,1209.9,2192.7,1211.2,2192.6,1212.6z M120,1202.3
	c-0.1-1.3-0.1-2.7-0.2-4l2-0.1c0.1,1.3,0.1,2.7,0.2,4L120,1202.3z M2193.2,1199.6l-2-0.1c0.1-1.3,0.1-2.7,0.2-4l2,0.1
	C2193.3,1196.9,2193.3,1198.2,2193.2,1199.6z M119.5,1189.4c0-1.3-0.1-2.7-0.1-4l2-0.1c0,1.3,0.1,2.7,0.1,4L119.5,1189.4z
	 M2193.7,1186.6l-2-0.1c0-1.3,0.1-2.7,0.1-4h2C2193.8,1183.9,2193.7,1185.2,2193.7,1186.6z M119.2,1176.4c0-1.3,0-2.7-0.1-4h2
	c0,1.3,0,2.7,0.1,4H119.2z M2194,1173.6h-2c0-1.3,0-2.7,0.1-4h2C2194,1170.9,2194,1172.2,2194,1173.6z M119,1163.4c0-1.3,0-2.7,0-4
	h2c0,1.3,0,2.7,0,4H119z M2194.1,1160.6h-2c0-1.3,0-2.7,0-4v-0.8h2v0.7C2194.1,1157.9,2194.1,1159.2,2194.1,1160.6z M121,1150.4h-2
	c0-1.3,0-2.7,0-4h2C121.1,1147.8,121,1149.1,121,1150.4z M2192.1,1146.8c0-1.3,0-2.7,0-4h2c0,1.3,0,2.7,0,4H2192.1z M121.2,1137.4
	h-2c0-1.3,0.1-2.7,0.1-4h2C121.2,1134.8,121.2,1136.1,121.2,1137.4z M2191.9,1133.8c0-1.3-0.1-2.7-0.1-4h2c0,1.3,0.1,2.7,0.1,4
	H2191.9z M121.5,1124.4l-2-0.1c0-1.3,0.1-2.7,0.1-4l2,0.1C121.6,1121.8,121.5,1123.1,121.5,1124.4z M2191.5,1120.9
	c0-1.3-0.1-2.7-0.1-4l2-0.1c0,1.3,0.1,2.7,0.1,4L2191.5,1120.9z M122,1111.5l-2-0.1c0.1-1.3,0.1-2.7,0.2-4l2,0.1
	C122.1,1108.8,122,1110.1,122,1111.5z M2191,1107.9c-0.1-1.3-0.1-2.7-0.2-4l2-0.1c0.1,1.3,0.1,2.7,0.2,4L2191,1107.9z M122.6,1098.5
	l-2-0.1c0.1-1.3,0.2-2.7,0.2-4l2,0.1C122.8,1095.8,122.7,1097.2,122.6,1098.5z M2190.3,1095c-0.1-1.3-0.2-2.7-0.2-4l2-0.1
	c0.1,1.3,0.2,2.7,0.2,4L2190.3,1095z M123.4,1085.5l-2-0.1c0.1-1.3,0.2-2.7,0.3-4l2,0.1C123.6,1082.9,123.5,1084.2,123.4,1085.5z
	 M2189.5,1082c-0.1-1.3-0.2-2.7-0.3-4l2-0.1c0.1,1.3,0.2,2.7,0.3,4L2189.5,1082z M124.4,1072.6l-2-0.2c0.1-1.3,0.2-2.7,0.3-4l2,0.2
	C124.6,1069.9,124.5,1071.3,124.4,1072.6z M2188.5,1069c-0.1-1.3-0.2-2.7-0.3-4l2-0.2c0.1,1.3,0.2,2.7,0.3,4L2188.5,1069z
	 M125.5,1059.6l-2-0.2c0.1-1.3,0.2-2.7,0.4-4l2,0.2C125.7,1057,125.6,1058.3,125.5,1059.6z M2187.3,1056.1c-0.1-1.3-0.3-2.7-0.4-4
	l2-0.2c0.1,1.3,0.3,2.7,0.4,4L2187.3,1056.1z M126.8,1046.7l-2-0.2c0.1-1.3,0.3-2.7,0.4-4l2,0.2
	C127.1,1044.1,126.9,1045.4,126.8,1046.7z M2186,1043.2c-0.1-1.3-0.3-2.6-0.4-4l2-0.2c0.1,1.3,0.3,2.7,0.4,4L2186,1043.2z
	 M128.2,1033.8l-2-0.2c0.2-1.3,0.3-2.7,0.5-4l2,0.2C128.5,1031.2,128.4,1032.5,128.2,1033.8z M2184.5,1030.3c-0.2-1.3-0.3-2.6-0.5-4
	l2-0.2c0.2,1.3,0.3,2.6,0.5,4L2184.5,1030.3z M129.8,1020.9l-2-0.3c0.2-1.3,0.3-2.6,0.5-4l2,0.3
	C130.2,1018.3,130,1019.6,129.8,1020.9z M2182.8,1017.4c-0.2-1.3-0.4-2.6-0.5-4l2-0.3c0.2,1.3,0.4,2.6,0.5,4L2182.8,1017.4z
	 M131.6,1008.1l-2-0.3c0.2-1.3,0.4-2.6,0.6-4l2,0.3C132,1005.4,131.8,1006.7,131.6,1008.1z M2181,1004.5c-0.2-1.3-0.4-2.6-0.6-4
	l2-0.3c0.2,1.3,0.4,2.6,0.6,4L2181,1004.5z M133.5,995.2l-2-0.3c0.2-1.3,0.4-2.6,0.6-4l2,0.3C133.9,992.6,133.7,993.9,133.5,995.2z
	 M2179.1,991.7c-0.2-1.3-0.4-2.6-0.6-3.9l2-0.3c0.2,1.3,0.4,2.6,0.6,4L2179.1,991.7z M135.6,982.4l-2-0.3c0.2-1.3,0.4-2.6,0.7-3.9
	l2,0.3C136,979.8,135.8,981.1,135.6,982.4z M2176.9,978.9c-0.2-1.3-0.5-2.6-0.7-3.9l2-0.3c0.2,1.3,0.5,2.6,0.7,3.9L2176.9,978.9z
	 M137.8,969.6l-2-0.4c0.2-1.3,0.5-2.6,0.7-3.9l2,0.4C138.3,967,138.1,968.3,137.8,969.6z M2174.6,966.1c-0.2-1.3-0.5-2.6-0.7-3.9
	l2-0.4c0.2,1.3,0.5,2.6,0.7,3.9L2174.6,966.1z M140.3,956.8l-2-0.4c0.3-1.3,0.5-2.6,0.8-3.9l2,0.4
	C140.8,954.2,140.5,955.5,140.3,956.8z M2172.2,953.4c-0.3-1.3-0.5-2.6-0.8-3.9l2-0.4c0.3,1.3,0.5,2.6,0.8,3.9L2172.2,953.4z
	 M142.8,944.1l-2-0.4c0.3-1.3,0.5-2.6,0.8-3.9l2,0.4C143.4,941.5,143.1,942.8,142.8,944.1z M2169.6,940.6c-0.3-1.3-0.6-2.6-0.8-3.9
	l2-0.4c0.3,1.3,0.6,2.6,0.8,3.9L2169.6,940.6z M145.6,931.4l-2-0.4c0.3-1.3,0.6-2.6,0.9-3.9l2,0.4
	C146.1,928.8,145.8,930.1,145.6,931.4z M2166.8,928c-0.3-1.3-0.6-2.6-0.9-3.9l1.9-0.4c0.3,1.3,0.6,2.6,0.9,3.9L2166.8,928z
	 M148.5,918.8l-1.9-0.5c0.3-1.3,0.6-2.6,0.9-3.9l1.9,0.5C149.1,916.2,148.8,917.5,148.5,918.8z M2163.9,915.3
	c-0.3-1.3-0.6-2.6-0.9-3.9l1.9-0.5c0.3,1.3,0.6,2.6,0.9,3.9L2163.9,915.3z M151.5,906.1l-1.9-0.5c0.3-1.3,0.6-2.6,1-3.9l1.9,0.5
	C152.1,903.5,151.8,904.8,151.5,906.1z M2160.8,902.7c-0.3-1.3-0.7-2.6-1-3.9l1.9-0.5c0.3,1.3,0.7,2.6,1,3.9L2160.8,902.7z
	 M154.7,893.5l-1.9-0.5c0.3-1.3,0.7-2.6,1-3.9l1.9,0.5C155.4,891,155,892.3,154.7,893.5z M2157.5,890.1c-0.3-1.3-0.7-2.6-1-3.9
	l1.9-0.5c0.3,1.3,0.7,2.6,1,3.9L2157.5,890.1z M158.1,881l-1.9-0.5c0.4-1.3,0.7-2.6,1.1-3.9l1.9,0.5
	C158.8,878.4,158.4,879.7,158.1,881z M2154.1,877.6c-0.4-1.3-0.7-2.6-1.1-3.8l1.9-0.5c0.4,1.3,0.7,2.6,1.1,3.9L2154.1,877.6z
	 M161.6,868.5l-1.9-0.6c0.4-1.3,0.7-2.6,1.1-3.8l1.9,0.6C162.4,865.9,162,867.2,161.6,868.5z M2150.5,865.1
	c-0.4-1.3-0.8-2.6-1.1-3.8l1.9-0.6c0.4,1.3,0.8,2.6,1.1,3.8L2150.5,865.1z M165.3,856l-1.9-0.6c0.4-1.3,0.8-2.6,1.2-3.8l1.9,0.6
	C166.1,853.5,165.7,854.8,165.3,856z M2146.8,852.7c-0.4-1.3-0.8-2.5-1.2-3.8l1.9-0.6c0.4,1.3,0.8,2.5,1.2,3.8L2146.8,852.7z
	 M169.2,843.6l-1.9-0.6c0.4-1.3,0.8-2.6,1.2-3.8l1.9,0.6C170,841,169.6,842.3,169.2,843.6z M2142.9,840.3c-0.4-1.3-0.8-2.5-1.2-3.8
	l1.9-0.6c0.4,1.3,0.8,2.5,1.2,3.8L2142.9,840.3z M173.2,831.2l-1.9-0.6c0.4-1.3,0.8-2.5,1.3-3.8l1.9,0.6
	C174,828.6,173.6,829.9,173.2,831.2z M2138.9,827.9c-0.4-1.3-0.8-2.5-1.3-3.8l1.9-0.6c0.4,1.3,0.9,2.5,1.3,3.8L2138.9,827.9z
	 M177.3,818.8l-1.9-0.7c0.4-1.3,0.9-2.5,1.3-3.8l1.9,0.7C178.2,816.3,177.8,817.5,177.3,818.8z M2134.7,815.6
	c-0.4-1.3-0.9-2.5-1.3-3.8l1.9-0.7c0.4,1.3,0.9,2.5,1.3,3.8L2134.7,815.6z M181.7,806.5l-1.9-0.7c0.5-1.3,0.9-2.5,1.4-3.8l1.9,0.7
	C182.6,804,182.1,805.3,181.7,806.5z M2130.3,803.4c-0.5-1.3-0.9-2.5-1.4-3.8l1.9-0.7c0.5,1.3,0.9,2.5,1.4,3.8L2130.3,803.4z
	 M186.2,794.3l-1.9-0.7c0.5-1.3,0.9-2.5,1.4-3.8l1.9,0.7C187.1,791.8,186.6,793,186.2,794.3z M2125.8,791.2
	c-0.5-1.2-0.9-2.5-1.4-3.7l1.9-0.7c0.5,1.2,0.9,2.5,1.4,3.7L2125.8,791.2z M190.8,782.1l-1.9-0.7c0.5-1.2,1-2.5,1.5-3.7l1.9,0.7
	C191.8,779.6,191.3,780.8,190.8,782.1z M2121.2,779.1c-0.5-1.2-1-2.5-1.5-3.7l1.9-0.7c0.5,1.2,1,2.5,1.5,3.7L2121.2,779.1z
	 M195.6,770l-1.9-0.7c0.5-1.2,1-2.5,1.5-3.7l1.9,0.8C196.6,767.5,196.1,768.7,195.6,770z M2116.3,767c-0.5-1.2-1-2.5-1.5-3.7
	l1.8-0.8c0.5,1.2,1,2.5,1.5,3.7L2116.3,767z M200.5,757.9l-1.8-0.8c0.5-1.2,1-2.5,1.6-3.7l1.8,0.8
	C201.6,755.4,201,756.7,200.5,757.9z M2111.4,755.1c-0.5-1.2-1-2.4-1.5-3.7l1.8-0.8c0.5,1.2,1,2.4,1.6,3.7L2111.4,755.1z
	 M205.6,745.9l-1.8-0.8c0.5-1.2,1.1-2.5,1.6-3.7l1.8,0.8C206.7,743.5,206.2,744.7,205.6,745.9z M2106.3,743.2
	c-0.5-1.2-1.1-2.4-1.6-3.6l1.8-0.8c0.5,1.2,1.1,2.4,1.6,3.7L2106.3,743.2z M210.9,734l-1.8-0.8c0.5-1.2,1.1-2.4,1.6-3.7l1.8,0.8
	C212,731.6,211.4,732.8,210.9,734z M2101.1,731.4c-0.5-1.2-1.1-2.4-1.6-3.6l1.8-0.8c0.6,1.2,1.1,2.4,1.6,3.6L2101.1,731.4z
	 M216.3,722.1l-1.8-0.8c0.6-1.2,1.1-2.4,1.7-3.6l1.8,0.8C217.4,719.7,216.8,720.9,216.3,722.1z M2095.7,719.6
	c-0.6-1.2-1.1-2.4-1.7-3.6l1.8-0.9c0.6,1.2,1.1,2.4,1.7,3.6L2095.7,719.6z M221.8,710.4l-1.8-0.9c0.6-1.2,1.2-2.4,1.7-3.6l1.8,0.9
	C223,707.9,222.4,709.1,221.8,710.4z M2090.1,707.9c-0.6-1.2-1.2-2.4-1.7-3.6l1.8-0.9c0.6,1.2,1.2,2.4,1.7,3.6L2090.1,707.9z
	 M227.5,698.6l-1.8-0.9c0.6-1.2,1.2-2.4,1.8-3.6l1.8,0.9C228.7,696.2,228.1,697.4,227.5,698.6z M2084.5,696.3
	c-0.6-1.2-1.2-2.4-1.8-3.6l1.8-0.9c0.6,1.2,1.2,2.4,1.8,3.6L2084.5,696.3z M233.3,687l-1.8-0.9c0.6-1.2,1.2-2.4,1.8-3.6l1.8,0.9
	C234.6,684.6,234,685.8,233.3,687z M2078.6,684.7c-0.6-1.2-1.2-2.4-1.8-3.5l1.8-0.9c0.6,1.2,1.2,2.4,1.8,3.5L2078.6,684.7z
	 M239.3,675.4l-1.8-0.9c0.6-1.2,1.2-2.4,1.9-3.5l1.8,0.9C240.6,673.1,239.9,674.3,239.3,675.4z M2072.6,673.2
	c-0.6-1.2-1.2-2.3-1.9-3.5l1.8-0.9c0.6,1.2,1.3,2.3,1.9,3.5L2072.6,673.2z M245.5,664l-1.8-1c0.6-1.2,1.3-2.4,1.9-3.5l1.8,1
	C246.7,661.6,246.1,662.8,245.5,664z M2066.5,661.8c-0.6-1.2-1.3-2.3-1.9-3.5l1.8-1c0.6,1.2,1.3,2.3,1.9,3.5L2066.5,661.8z
	 M251.7,652.5l-1.7-1c0.7-1.2,1.3-2.3,2-3.5l1.7,1C253,650.2,252.4,651.4,251.7,652.5z M2060.3,650.5c-0.6-1.2-1.3-2.3-2-3.5l1.7-1
	c0.7,1.2,1.3,2.3,2,3.5L2060.3,650.5z M258.1,641.2l-1.7-1c0.7-1.2,1.3-2.3,2-3.5l1.7,1C259.5,638.9,258.8,640.1,258.1,641.2z
	 M2053.8,639.3c-0.7-1.1-1.3-2.3-2-3.4l1.7-1c0.7,1.1,1.3,2.3,2,3.5L2053.8,639.3z M264.7,630l-1.7-1c0.7-1.2,1.4-2.3,2-3.4l1.7,1
	C266.1,627.7,265.4,628.8,264.7,630z M2047.3,628.1c-0.7-1.1-1.4-2.3-2-3.4l1.7-1c0.7,1.1,1.4,2.3,2,3.4L2047.3,628.1z M271.4,618.8
	l-1.7-1c0.7-1.1,1.4-2.3,2.1-3.4l1.7,1C272.8,616.6,272.1,617.7,271.4,618.8z M2040.6,617c-0.7-1.1-1.4-2.3-2.1-3.4l1.7-1
	c0.7,1.1,1.4,2.3,2.1,3.4L2040.6,617z M278.2,607.8l-1.7-1.1c0.7-1.1,1.4-2.3,2.1-3.4l1.7,1.1C279.6,605.5,278.9,606.6,278.2,607.8z
	 M2033.8,606c-0.7-1.1-1.4-2.2-2.1-3.4l1.7-1.1c0.7,1.1,1.4,2.2,2.1,3.4L2033.8,606z M285.2,596.8l-1.7-1.1c0.7-1.1,1.4-2.2,2.2-3.4
	l1.7,1.1C286.6,594.5,285.9,595.7,285.2,596.8z M2026.8,595.1c-0.7-1.1-1.4-2.2-2.2-3.3l1.7-1.1c0.7,1.1,1.5,2.2,2.2,3.4
	L2026.8,595.1z M292.3,585.9l-1.7-1.1c0.7-1.1,1.5-2.2,2.2-3.3l1.7,1.1C293.8,583.7,293,584.8,292.3,585.9z M2019.7,584.2
	c-0.7-1.1-1.5-2.2-2.2-3.3l1.7-1.1c0.7,1.1,1.5,2.2,2.2,3.3L2019.7,584.2z M299.6,575.1l-1.7-1.1c0.8-1.1,1.5-2.2,2.3-3.3l1.6,1.1
	C301.1,572.9,300.3,574,299.6,575.1z M2012.5,573.5c-0.8-1.1-1.5-2.2-2.3-3.3l1.6-1.1c0.8,1.1,1.5,2.2,2.3,3.3L2012.5,573.5z
	 M306.9,564.4l-1.6-1.1c0.8-1.1,1.5-2.2,2.3-3.3l1.6,1.2C308.5,562.2,307.7,563.3,306.9,564.4z M2005.1,562.8
	c-0.8-1.1-1.5-2.2-2.3-3.3l1.6-1.2c0.8,1.1,1.5,2.2,2.3,3.3L2005.1,562.8z M314.4,553.8l-1.6-1.2c0.8-1.1,1.6-2.2,2.3-3.3l1.6,1.2
	C316,551.6,315.2,552.7,314.4,553.8z M1997.6,552.2c-0.8-1.1-1.6-2.2-2.3-3.2l1.6-1.2c0.8,1.1,1.6,2.2,2.3,3.2L1997.6,552.2z
	 M322.1,543.3l-1.6-1.2c0.8-1.1,1.6-2.1,2.4-3.2l1.6,1.2C323.7,541.1,322.9,542.2,322.1,543.3z M1989.9,541.8
	c-0.8-1.1-1.6-2.1-2.4-3.2l1.6-1.2c0.8,1.1,1.6,2.1,2.4,3.2L1989.9,541.8z M329.9,532.8l-1.6-1.2c0.8-1.1,1.6-2.1,2.4-3.2l1.6,1.2
	C331.5,530.7,330.7,531.8,329.9,532.8z M1982.2,531.4c-0.8-1.1-1.6-2.1-2.4-3.2l1.6-1.2c0.8,1.1,1.6,2.1,2.4,3.2L1982.2,531.4z
	 M337.8,522.5l-1.6-1.2c0.8-1.1,1.6-2.1,2.5-3.2l1.6,1.2C339.4,520.4,338.6,521.5,337.8,522.5z M1974.3,521.1
	c-0.8-1.1-1.6-2.1-2.5-3.1l1.6-1.2c0.8,1,1.6,2.1,2.5,3.2L1974.3,521.1z M345.8,512.3l-1.6-1.2c0.8-1,1.7-2.1,2.5-3.1l1.6,1.3
	C347.4,510.2,346.6,511.2,345.8,512.3z M1966.2,510.9c-0.8-1-1.7-2.1-2.5-3.1l1.6-1.3c0.8,1,1.7,2.1,2.5,3.1L1966.2,510.9z
	 M353.9,502.2l-1.5-1.3c0.8-1,1.7-2.1,2.5-3.1l1.5,1.3C355.6,500.1,354.8,501.1,353.9,502.2z M1958.1,500.8c-0.8-1-1.7-2.1-2.5-3.1
	l1.5-1.3c0.8,1,1.7,2.1,2.5,3.1L1958.1,500.8z M362.2,492.2l-1.5-1.3c0.9-1,1.7-2,2.6-3.1l1.5,1.3
	C363.9,490.1,363.1,491.1,362.2,492.2z M1949.8,490.8c-0.9-1-1.7-2-2.6-3.1l1.5-1.3c0.9,1,1.7,2,2.6,3.1L1949.8,490.8z M370.6,482.2
	l-1.5-1.3c0.9-1,1.7-2,2.6-3l1.5,1.3C372.4,480.2,371.5,481.2,370.6,482.2z M1941.4,481c-0.9-1-1.7-2-2.6-3l1.5-1.3
	c0.9,1,1.7,2,2.6,3L1941.4,481z M379.1,472.4l-1.5-1.3c0.9-1,1.8-2,2.7-3l1.5,1.3C380.9,470.4,380,471.4,379.1,472.4z M1932.9,471.2
	c-0.9-1-1.8-2-2.6-3l1.5-1.3c0.9,1,1.8,2,2.7,3L1932.9,471.2z M387.8,462.8l-1.5-1.3c0.9-1,1.8-2,2.7-3l1.5,1.3
	C389.6,460.8,388.7,461.8,387.8,462.8z M1924.2,461.5c-0.9-1-1.8-2-2.7-3l1.5-1.3c0.9,1,1.8,2,2.7,3L1924.2,461.5z M396.6,453.2
	l-1.5-1.4c0.9-1,1.8-2,2.7-2.9l1.5,1.4C398.4,451.2,397.5,452.2,396.6,453.2z M1915.4,451.9c-0.9-1-1.8-1.9-2.7-2.9l1.5-1.4
	c0.9,1,1.8,1.9,2.7,2.9L1915.4,451.9z M405.4,443.7l-1.5-1.4c0.9-1,1.8-1.9,2.8-2.9l1.4,1.4C407.3,441.8,406.4,442.7,405.4,443.7z
	 M1906.5,442.5c-0.9-1-1.8-1.9-2.8-2.9l1.4-1.4c0.9,1,1.8,1.9,2.8,2.9L1906.5,442.5z M414.4,434.3l-1.4-1.4c0.9-1,1.9-1.9,2.8-2.9
	l1.4,1.4C416.3,432.4,415.4,433.4,414.4,434.3z M1897.5,433.1c-0.9-1-1.9-1.9-2.8-2.9l1.4-1.4c0.9,1,1.9,1.9,2.8,2.9L1897.5,433.1z
	 M423.6,425.1l-1.4-1.4c0.9-0.9,1.9-1.9,2.8-2.8l1.4,1.4C425.4,423.2,424.5,424.1,423.6,425.1z M1888.4,423.9
	c-0.9-0.9-1.9-1.9-2.8-2.8l1.4-1.4c0.9,0.9,1.9,1.9,2.8,2.8L1888.4,423.9z M432.8,415.9l-1.4-1.4c1-0.9,1.9-1.9,2.9-2.8l1.4,1.4
	C434.7,414.1,433.7,415,432.8,415.9z M1879.2,414.8c-1-0.9-1.9-1.9-2.9-2.8l1.4-1.4c1,0.9,1.9,1.9,2.9,2.8L1879.2,414.8z
	 M442.1,406.9l-1.4-1.4c1-0.9,1.9-1.8,2.9-2.8l1.4,1.5C444,405.1,443.1,406,442.1,406.9z M1869.8,405.8c-1-0.9-1.9-1.8-2.9-2.7
	l1.4-1.5c1,0.9,1.9,1.8,2.9,2.8L1869.8,405.8z M451.6,398l-1.4-1.5c1-0.9,2-1.8,2.9-2.7l1.4,1.5C453.5,396.2,452.5,397.1,451.6,398z
	 M1860.3,396.9c-1-0.9-2-1.8-2.9-2.7l1.4-1.5c1,0.9,2,1.8,2.9,2.7L1860.3,396.9z M461.1,389.3l-1.3-1.5c1-0.9,2-1.8,3-2.7l1.3,1.5
	C463.1,387.5,462.1,388.4,461.1,389.3z M1850.8,388.1c-1-0.9-2-1.8-3-2.7l1.3-1.5c1,0.9,2,1.8,3,2.7L1850.8,388.1z M470.8,380.6
	l-1.3-1.5c1-0.9,2-1.8,3-2.6l1.3,1.5C472.8,378.8,471.8,379.7,470.8,380.6z M1841.1,379.5c-1-0.9-2-1.8-3-2.6l1.3-1.5
	c1,0.9,2,1.8,3,2.6L1841.1,379.5z M480.6,372.1l-1.3-1.5c1-0.9,2-1.7,3-2.6l1.3,1.5C482.6,370.3,481.6,371.2,480.6,372.1z
	 M1831.3,371c-1-0.9-2-1.7-3-2.6l1.3-1.5c1,0.9,2,1.7,3,2.6L1831.3,371z M490.4,363.6l-1.3-1.5c1-0.9,2-1.7,3.1-2.6l1.3,1.5
	C492.5,361.9,491.5,362.8,490.4,363.6z M1821.4,362.5c-1-0.9-2-1.7-3.1-2.6l1.3-1.5c1,0.9,2.1,1.7,3.1,2.6L1821.4,362.5z
	 M500.4,355.4l-1.3-1.5c1-0.8,2.1-1.7,3.1-2.5l1.3,1.6C502.5,353.7,501.5,354.5,500.4,355.4z M1811.4,354.3c-1-0.8-2.1-1.7-3.1-2.5
	l1.3-1.6c1,0.8,2.1,1.7,3.1,2.5L1811.4,354.3z M510.5,347.2l-1.2-1.6c1-0.8,2.1-1.7,3.1-2.5l1.2,1.6
	C512.6,345.5,511.5,346.4,510.5,347.2z M1801.2,346.1c-1-0.8-2.1-1.7-3.1-2.5l1.2-1.6c1,0.8,2.1,1.7,3.1,2.5L1801.2,346.1z
	 M520.7,339.2l-1.2-1.6c1.1-0.8,2.1-1.6,3.2-2.5l1.2,1.6C522.8,337.5,521.7,338.3,520.7,339.2z M1791,338.1
	c-1.1-0.8-2.1-1.6-3.2-2.4l1.2-1.6c1.1,0.8,2.1,1.6,3.2,2.5L1791,338.1z M531,331.3l-1.2-1.6c1.1-0.8,2.1-1.6,3.2-2.4l1.2,1.6
	C533.1,329.7,532,330.5,531,331.3z M1780.7,330.2c-1.1-0.8-2.1-1.6-3.2-2.4l1.2-1.6c1.1,0.8,2.1,1.6,3.2,2.4L1780.7,330.2z
	 M541.3,323.5l-1.2-1.6c1.1-0.8,2.1-1.6,3.2-2.4l1.2,1.6C543.5,321.9,542.4,322.7,541.3,323.5z M1770.3,322.4
	c-1.1-0.8-2.1-1.6-3.2-2.4l1.2-1.6c1.1,0.8,2.2,1.6,3.2,2.4L1770.3,322.4z M551.8,315.8l-1.2-1.6c1.1-0.8,2.2-1.6,3.2-2.3l1.2,1.6
	C554,314.3,552.9,315.1,551.8,315.8z M1759.8,314.7c-1.1-0.8-2.2-1.6-3.3-2.3l1.2-1.6c1.1,0.8,2.2,1.6,3.3,2.3L1759.8,314.7z
	 M562.4,308.3l-1.1-1.6c1.1-0.8,2.2-1.5,3.3-2.3l1.1,1.6C564.6,306.8,563.5,307.6,562.4,308.3z M1749.2,307.2
	c-1.1-0.8-2.2-1.5-3.3-2.3l1.1-1.6c1.1,0.8,2.2,1.5,3.3,2.3L1749.2,307.2z M573,300.9l-1.1-1.7c1.1-0.8,2.2-1.5,3.3-2.2l1.1,1.7
	C575.2,299.4,574.1,300.2,573,300.9z M1738.5,299.8c-1.1-0.8-2.2-1.5-3.3-2.2l1.1-1.7c1.1,0.7,2.2,1.5,3.3,2.2L1738.5,299.8z
	 M583.8,293.7l-1.1-1.7c1.1-0.7,2.2-1.5,3.3-2.2l1.1,1.7C586,292.2,584.9,293,583.8,293.7z M1727.7,292.6c-1.1-0.7-2.2-1.5-3.3-2.2
	l1.1-1.7c1.1,0.7,2.2,1.5,3.3,2.2L1727.7,292.6z M594.6,286.6l-1.1-1.7c1.1-0.7,2.2-1.4,3.4-2.2l1.1,1.7
	C596.9,285.1,595.7,285.9,594.6,286.6z M1716.8,285.5c-1.1-0.7-2.2-1.4-3.4-2.2l1.1-1.7c1.1,0.7,2.3,1.4,3.4,2.2L1716.8,285.5z
	 M605.5,279.6l-1.1-1.7c1.1-0.7,2.3-1.4,3.4-2.1l1.1,1.7C607.8,278.2,606.7,278.9,605.5,279.6z M1705.8,278.5
	c-1.1-0.7-2.3-1.4-3.4-2.1l1.1-1.7c1.1,0.7,2.3,1.4,3.4,2.1L1705.8,278.5z M616.5,272.8l-1-1.7c1.1-0.7,2.3-1.4,3.4-2.1l1,1.7
	C618.8,271.4,617.7,272.1,616.5,272.8z M1694.7,271.7c-1.1-0.7-2.3-1.4-3.4-2.1l1-1.7c1.1,0.7,2.3,1.4,3.4,2.1L1694.7,271.7z
	 M627.6,266.1l-1-1.7c1.1-0.7,2.3-1.4,3.4-2l1,1.7C629.9,264.7,628.8,265.4,627.6,266.1z M1683.6,265c-1.1-0.7-2.3-1.4-3.4-2l1-1.7
	c1.2,0.7,2.3,1.4,3.5,2L1683.6,265z M638.8,259.5l-1-1.7c1.2-0.7,2.3-1.3,3.5-2l1,1.7C641.1,258.2,640,258.9,638.8,259.5z
	 M1672.3,258.4c-1.2-0.7-2.3-1.3-3.5-2l1-1.7c1.2,0.7,2.3,1.3,3.5,2L1672.3,258.4z M650.1,253.1l-1-1.7c1.2-0.7,2.3-1.3,3.5-1.9
	l1,1.7C652.4,251.8,651.2,252.5,650.1,253.1z M1661,252c-1.2-0.7-2.3-1.3-3.5-1.9l1-1.7c1.2,0.6,2.3,1.3,3.5,2L1661,252z
	 M661.4,246.8l-1-1.8c1.2-0.6,2.3-1.3,3.5-1.9l1,1.8C663.7,245.6,662.6,246.2,661.4,246.8z M1649.6,245.7c-1.2-0.6-2.3-1.3-3.5-1.9
	l0.9-1.8c1.2,0.6,2.4,1.3,3.5,1.9L1649.6,245.7z M672.8,240.7l-0.9-1.8c1.2-0.6,2.4-1.2,3.5-1.9l0.9,1.8
	C675.1,239.5,674,240.1,672.8,240.7z M1638.1,239.6c-1.2-0.6-2.4-1.2-3.5-1.9l0.9-1.8c1.2,0.6,2.4,1.2,3.6,1.9L1638.1,239.6z
	 M684.3,234.7l-0.9-1.8c1.2-0.6,2.4-1.2,3.6-1.8l0.9,1.8C686.6,233.5,685.4,234.1,684.3,234.7z M1626.6,233.6
	c-1.2-0.6-2.4-1.2-3.6-1.8l0.9-1.8c1.2,0.6,2.4,1.2,3.6,1.8L1626.6,233.6z M695.8,228.9l-0.9-1.8c1.2-0.6,2.4-1.2,3.6-1.8l0.9,1.8
	C698.2,227.7,697,228.3,695.8,228.9z M1615,227.7c-1.2-0.6-2.4-1.2-3.6-1.8l0.9-1.8c1.2,0.6,2.4,1.2,3.6,1.8L1615,227.7z
	 M707.4,223.2l-0.9-1.8c1.2-0.6,2.4-1.2,3.6-1.7l0.9,1.8C709.8,222.1,708.6,222.6,707.4,223.2z M1603.2,222
	c-1.2-0.6-2.4-1.2-3.6-1.7l0.9-1.8c1.2,0.6,2.4,1.1,3.6,1.7L1603.2,222z M719.1,217.7l-0.8-1.8c1.2-0.6,2.4-1.1,3.6-1.7l0.8,1.8
	C721.5,216.5,720.3,217.1,719.1,217.7z M1591.5,216.5c-1.2-0.6-2.4-1.1-3.6-1.7l0.8-1.8c1.2,0.6,2.4,1.1,3.6,1.7L1591.5,216.5z
	 M730.9,212.3l-0.8-1.8c1.2-0.5,2.4-1.1,3.6-1.6l0.8,1.8C733.3,211.2,732.1,211.7,730.9,212.3z M1579.6,211.1
	c-1.2-0.5-2.4-1.1-3.7-1.6l0.8-1.8c1.2,0.5,2.4,1.1,3.7,1.6L1579.6,211.1z M742.7,207l-0.8-1.8c1.2-0.5,2.4-1.1,3.7-1.6l0.8,1.8
	C745.1,206,743.9,206.5,742.7,207z M1567.7,205.8c-1.2-0.5-2.5-1.1-3.7-1.6l0.8-1.8c1.2,0.5,2.5,1.1,3.7,1.6L1567.7,205.8z
	 M754.6,201.9l-0.8-1.8c1.2-0.5,2.4-1,3.7-1.5l0.8,1.8C757,200.9,755.8,201.4,754.6,201.9z M1555.7,200.7c-1.2-0.5-2.5-1-3.7-1.5
	l0.8-1.8c1.2,0.5,2.5,1,3.7,1.5L1555.7,200.7z M766.5,197l-0.8-1.9c1.2-0.5,2.5-1,3.7-1.5l0.7,1.9C769,196,767.8,196.5,766.5,197z
	 M1543.6,195.8c-1.2-0.5-2.5-1-3.7-1.5l0.7-1.9c1.2,0.5,2.5,1,3.7,1.5L1543.6,195.8z M778.6,192.2l-0.7-1.9c1.2-0.5,2.5-1,3.7-1.5
	l0.7,1.9C781.1,191.2,779.8,191.7,778.6,192.2z M1531.5,191c-1.2-0.5-2.5-1-3.7-1.4l0.7-1.9c1.3,0.5,2.5,1,3.7,1.4L1531.5,191z
	 M790.7,187.5l-0.7-1.9c1.2-0.5,2.5-0.9,3.7-1.4l0.7,1.9C793.2,186.5,792,187,790.7,187.5z M1519.3,186.3c-1.3-0.5-2.5-0.9-3.8-1.4
	l0.7-1.9c1.3,0.5,2.5,0.9,3.8,1.4L1519.3,186.3z M802.9,183l-0.7-1.9c1.3-0.5,2.5-0.9,3.8-1.4l0.7,1.9
	C805.4,182.1,804.1,182.5,802.9,183z M1507.1,181.8c-1.3-0.5-2.5-0.9-3.8-1.4l0.7-1.9c1.3,0.4,2.5,0.9,3.8,1.4L1507.1,181.8z
	 M815.1,178.6l-0.7-1.9c1.3-0.4,2.5-0.9,3.8-1.3l0.7,1.9C817.6,177.7,816.4,178.2,815.1,178.6z M1494.8,177.5
	c-1.3-0.4-2.5-0.9-3.8-1.3l0.6-1.9c1.3,0.4,2.5,0.9,3.8,1.3L1494.8,177.5z M827.4,174.4l-0.6-1.9c1.3-0.4,2.5-0.8,3.8-1.3l0.6,1.9
	C829.9,173.6,828.7,174,827.4,174.4z M1482.5,173.3c-1.3-0.4-2.5-0.8-3.8-1.3l0.6-1.9c1.3,0.4,2.5,0.8,3.8,1.3L1482.5,173.3z
	 M839.8,170.4l-0.6-1.9c1.3-0.4,2.5-0.8,3.8-1.2l0.6,1.9C842.3,169.6,841,170,839.8,170.4z M1470,169.3c-1.3-0.4-2.6-0.8-3.8-1.2
	l0.6-1.9c1.3,0.4,2.6,0.8,3.8,1.2L1470,169.3z M852.1,166.5l-0.6-1.9c1.3-0.4,2.6-0.8,3.8-1.2l0.6,1.9
	C854.7,165.7,853.4,166.1,852.1,166.5z M1457.6,165.4c-1.3-0.4-2.6-0.8-3.8-1.2l0.6-1.9c1.3,0.4,2.6,0.8,3.8,1.2L1457.6,165.4z
	 M864.6,162.7l-0.6-1.9c1.3-0.4,2.6-0.7,3.8-1.1l0.6,1.9C867.1,162,865.9,162.4,864.6,162.7z M1445.1,161.7
	c-1.3-0.4-2.6-0.7-3.8-1.1l0.5-1.9c1.3,0.4,2.6,0.7,3.8,1.1L1445.1,161.7z M877.1,159.2l-0.5-1.9c1.3-0.4,2.6-0.7,3.9-1.1l0.5,1.9
	C879.6,158.4,878.4,158.8,877.1,159.2z M1432.6,158.2c-1.3-0.4-2.6-0.7-3.9-1.1l0.5-1.9c1.3,0.4,2.6,0.7,3.9,1.1L1432.6,158.2z
	 M889.6,155.7l-0.5-1.9c1.3-0.3,2.6-0.7,3.9-1l0.5,1.9C892.2,155.1,890.9,155.4,889.6,155.7z M1420.1,154.8c-1.3-0.3-2.6-0.7-3.9-1
	l0.5-1.9c1.3,0.3,2.6,0.7,3.9,1L1420.1,154.8z M902.2,152.5l-0.5-1.9c1.3-0.3,2.6-0.7,3.9-1l0.5,1.9
	C904.8,151.8,903.5,152.2,902.2,152.5z M1407.5,151.6c-1.3-0.3-2.6-0.6-3.9-1l0.5-1.9c1.3,0.3,2.6,0.6,3.9,1L1407.5,151.6z
	 M914.8,149.4l-0.5-1.9c1.3-0.3,2.6-0.6,3.9-0.9l0.5,1.9C917.4,148.8,916.1,149.1,914.8,149.4z M1394.9,148.6
	c-1.3-0.3-2.6-0.6-3.9-0.9l0.5-1.9c1.3,0.3,2.6,0.6,3.9,0.9L1394.9,148.6z M927.4,146.4l-0.4-2c1.3-0.3,2.6-0.6,3.9-0.9l0.4,2
	C930,145.9,928.7,146.1,927.4,146.4z M1382.2,145.7c-1.3-0.3-2.6-0.6-3.9-0.9l0.4-2c1.3,0.3,2.6,0.6,3.9,0.9L1382.2,145.7z
	 M940.1,143.7l-0.4-2c1.3-0.3,2.6-0.6,3.9-0.8l0.4,2C942.7,143.1,941.4,143.4,940.1,143.7z M1369.5,142.9c-1.3-0.3-2.6-0.5-3.9-0.8
	l0.4-2c1.3,0.3,2.6,0.5,3.9,0.8L1369.5,142.9z M952.8,141l-0.4-2c1.3-0.3,2.6-0.5,3.9-0.8l0.4,2C955.5,140.5,954.1,140.8,952.8,141z
	 M1356.8,140.3c-1.3-0.3-2.6-0.5-3.9-0.8l0.4-2c1.3,0.3,2.6,0.5,3.9,0.8L1356.8,140.3z M965.6,138.6l-0.4-2c1.3-0.2,2.6-0.5,3.9-0.7
	l0.4,2C968.2,138.1,966.9,138.3,965.6,138.6z M1344,137.9c-1.3-0.2-2.6-0.5-3.9-0.7l0.4-2c1.3,0.2,2.6,0.5,3.9,0.7L1344,137.9z
	 M978.4,136.3l-0.3-2c1.3-0.2,2.6-0.5,3.9-0.7l0.3,2C981,135.8,979.7,136,978.4,136.3z M1331.3,135.7c-1.3-0.2-2.6-0.4-3.9-0.7
	l0.3-2c1.3,0.2,2.6,0.4,3.9,0.7L1331.3,135.7z M991.2,134.1l-0.3-2c1.3-0.2,2.6-0.4,4-0.6l0.3,2
	C993.8,133.7,992.5,133.9,991.2,134.1z M1318.4,133.6c-1.3-0.2-2.6-0.4-3.9-0.6l0.3-2c1.3,0.2,2.6,0.4,4,0.6L1318.4,133.6z
	 M1004,132.2l-0.3-2c1.3-0.2,2.6-0.4,4-0.6l0.3,2C1006.7,131.8,1005.3,132,1004,132.2z M1305.6,131.6c-1.3-0.2-2.6-0.4-4-0.6l0.3-2
	c1.3,0.2,2.6,0.4,4,0.6L1305.6,131.6z M1016.9,130.3l-0.3-2c1.3-0.2,2.6-0.4,4-0.5l0.3,2C1019.5,130,1018.2,130.2,1016.9,130.3z
	 M1292.7,129.9c-1.3-0.2-2.6-0.3-4-0.5l0.3-2c1.3,0.2,2.6,0.3,4,0.5L1292.7,129.9z M1029.8,128.7l-0.2-2c1.3-0.2,2.6-0.3,4-0.5
	l0.2,2C1032.4,128.4,1031.1,128.5,1029.8,128.7z M1279.8,128.3c-1.3-0.2-2.6-0.3-4-0.5l0.2-2c1.3,0.2,2.7,0.3,4,0.5L1279.8,128.3z
	 M1042.7,127.2l-0.2-2c1.3-0.1,2.7-0.3,4-0.4l0.2,2C1045.3,126.9,1044,127.1,1042.7,127.2z M1266.9,126.8c-1.3-0.1-2.6-0.3-4-0.4
	l0.2-2c1.3,0.1,2.7,0.3,4,0.4L1266.9,126.8z M1055.6,125.9l-0.2-2c1.3-0.1,2.7-0.3,4-0.4l0.2,2
	C1058.2,125.6,1056.9,125.7,1055.6,125.9z M1254,125.5c-1.3-0.1-2.7-0.2-4-0.4l0.2-2c1.3,0.1,2.7,0.2,4,0.4L1254,125.5z
	 M1068.5,124.7l-0.2-2c1.3-0.1,2.7-0.2,4-0.3l0.2,2C1071.2,124.5,1069.8,124.6,1068.5,124.7z M1241.1,124.4c-1.3-0.1-2.7-0.2-4-0.3
	l0.2-2c1.3,0.1,2.7,0.2,4,0.3L1241.1,124.4z M1081.5,123.7l-0.1-2c1.3-0.1,2.7-0.2,4-0.3l0.1,2
	C1084.1,123.5,1082.8,123.6,1081.5,123.7z M1228.1,123.4c-1.3-0.1-2.7-0.2-4-0.3l0.1-2c1.3,0.1,2.7,0.2,4,0.3L1228.1,123.4z
	 M1094.4,122.8l-0.1-2c1.3-0.1,2.7-0.2,4-0.2l0.1,2C1097.1,122.7,1095.8,122.8,1094.4,122.8z M1215.2,122.6c-1.3-0.1-2.7-0.1-4-0.2
	l0.1-2c1.3,0.1,2.7,0.1,4,0.2L1215.2,122.6z M1107.4,122.2l-0.1-2c1.3-0.1,2.7-0.1,4-0.2l0.1,2
	C1110.1,122,1108.7,122.1,1107.4,122.2z M1202.2,122c-1.3-0.1-2.7-0.1-4-0.2l0.1-2c1.3,0.1,2.7,0.1,4,0.2L1202.2,122z M1120.3,121.6
	l-0.1-2c1.3,0,2.7-0.1,4-0.1l0.1,2C1123,121.5,1121.7,121.6,1120.3,121.6z M1189.2,121.5c-1.3,0-2.7-0.1-4-0.1l0.1-2
	c1.3,0,2.7,0.1,4,0.1L1189.2,121.5z M1133.3,121.3v-2c1.3,0,2.7-0.1,4-0.1v2C1135.9,121.2,1134.6,121.2,1133.3,121.3z M1176.2,121.2
	c-1.3,0-2.7,0-4-0.1v-2c1.3,0,2.7,0,4,0.1V121.2z M1146.3,121.1v-2c1.3,0,2.7,0,4,0v2C1148.9,121,1147.6,121,1146.3,121.1z
	 M1163.2,121c-1.3,0-2.7,0-4,0v-2c1.3,0,2.7,0,4,0V121z"/>
</svg>
