<?xml version="1.0" encoding="UTF-8"?>
<svg width="2085px" height="2085px" viewBox="0 0 2085 2085" version="1.1" xmlns="http://www.w3.org/2000/svg" xmlns:xlink="http://www.w3.org/1999/xlink">
    <title>刻度圆点</title>
    <g id="页面-1" stroke="none" stroke-width="1" fill="none" fill-rule="evenodd">
        <g id="画板" transform="translate(1.000000, 0.000000)" fill="#FFFFFF" fill-rule="nonzero">
            <g id="刻度圆点" transform="translate(-1.000000, 0.000000)">
                <g id="编组">
                    <circle id="椭圆形" cx="1043.3" cy="5.7" r="5.2"></circle>
                    <path d="M862.4,16.2 C859.6,16.7 857.7,19.4 858.2,22.2 C858.7,25 861.4,26.9 864.2,26.4 C867,25.9 868.9,23.2 868.4,20.4 C868,17.6 865.3,15.7 862.4,16.2 Z" id="路径"></path>
                    <path d="M687,63.1 C684.3,64.1 682.9,67.1 683.9,69.8 C684.9,72.5 687.9,73.9 690.6,72.9 C693.3,71.9 694.7,68.9 693.7,66.2 C692.7,63.5 689.7,62.1 687,63.1 Z" id="路径"></path>
                    <circle id="椭圆形" transform="translate(524.982440, 144.159420) rotate(-39.322866) translate(-524.982440, -144.159420) " cx="524.98244" cy="144.15942" r="5.20008489"></circle>
                    <path d="M373.6,243.8 C371.4,245.6 371.1,248.9 373,251.1 C374.8,253.3 378.1,253.6 380.3,251.7 C382.5,249.9 382.8,246.6 380.9,244.4 C379,242.2 375.8,241.9 373.6,243.8 Z" id="路径"></path>
                    <circle id="椭圆形" transform="translate(249.109340, 375.376460) rotate(-7.065320) translate(-249.109340, -375.376460) " cx="249.10934" cy="375.37646" r="5.19996558"></circle>
                    <circle id="椭圆形" transform="translate(145.290990, 523.394720) rotate(-14.999329) translate(-145.290990, -523.394720) " cx="145.29099" cy="523.39472" r="5.19984465"></circle>
                    <path d="M70.6,682.2 C67.9,681.2 64.9,682.6 63.9,685.3 C62.9,688 64.3,691 67,692 C69.7,693 72.7,691.6 73.7,688.9 C74.7,686.2 73.3,683.2 70.6,682.2 Z" id="路径"></path>
                    <path d="M22.9,856.5 C20.1,856 17.4,857.9 16.9,860.7 C16.4,863.5 18.3,866.2 21.1,866.7 C23.9,867.2 26.6,865.3 27.1,862.5 C27.6,859.6 25.7,857 22.9,856.5 Z" id="路径"></path>
                    <circle id="椭圆形" cx="6.1" cy="1041.6" r="5.2"></circle>
                    <circle id="椭圆形" cx="21.7" cy="1221.6" r="5.2"></circle>
                    <path d="M66.6,1391.2 C63.9,1392.2 62.5,1395.2 63.5,1397.9 C64.5,1400.6 67.5,1402 70.2,1401 C72.9,1400 74.3,1397 73.3,1394.3 C72.3,1391.6 69.3,1390.3 66.6,1391.2 Z" id="路径"></path>
                    <circle id="椭圆形" transform="translate(144.674090, 1559.889020) rotate(-39.322866) translate(-144.674090, -1559.889020) " cx="144.67409" cy="1559.88902" r="5.20008489"></circle>
                    <path d="M244.8,1704 C242.6,1705.8 242.3,1709.1 244.2,1711.3 C246,1713.5 249.3,1713.8 251.5,1711.9 C253.7,1710.1 254,1706.8 252.1,1704.6 C250.3,1702.5 247,1702.2 244.8,1704 Z" id="路径"></path>
                    <path d="M371.9,1832.5 C370.1,1834.7 370.3,1838 372.5,1839.8 C374.7,1841.6 378,1841.4 379.8,1839.2 C381.6,1837 381.4,1833.7 379.2,1831.9 C377,1830 373.7,1830.3 371.9,1832.5 Z" id="路径"></path>
                    <path d="M526.4,1935.1 C523.9,1933.7 520.7,1934.5 519.3,1937 C517.9,1939.5 518.7,1942.7 521.2,1944.1 C523.7,1945.5 526.9,1944.7 528.3,1942.2 C529.7,1939.7 528.9,1936.5 526.4,1935.1 Z" id="路径"></path>
                    <path d="M689.3,2011.2 C686.6,2010.2 683.6,2011.6 682.6,2014.3 C681.6,2017 683,2020 685.7,2021 C688.4,2022 691.4,2020.6 692.4,2017.9 C693.4,2015.1 692,2012.1 689.3,2011.2 Z" id="路径"></path>
                    <path d="M862.9,2057.8 C860.1,2057.3 857.4,2059.2 856.9,2062 C856.4,2064.8 858.3,2067.5 861.1,2068 C863.9,2068.5 866.6,2066.6 867.1,2063.8 C867.6,2061 865.7,2058.3 862.9,2057.8 Z" id="路径"></path>
                    <circle id="椭圆形" transform="translate(1042.056560, 2078.801580) rotate(-9.218364) translate(-1042.056560, -2078.801580) " cx="1042.05656" cy="2078.80158" r="5.20007917"></circle>
                    <path d="M1221.1,2058 C1218.3,2058.5 1216.4,2061.2 1216.9,2064 C1217.4,2066.8 1220.1,2068.7 1222.9,2068.2 C1225.7,2067.7 1227.6,2065 1227.1,2062.2 C1226.6,2059.4 1223.9,2057.5 1221.1,2058 Z" id="路径"></path>
                    <path d="M1394.8,2011.6 C1392.1,2012.6 1390.7,2015.6 1391.7,2018.3 C1392.7,2021 1395.7,2022.4 1398.4,2021.4 C1401.1,2020.4 1402.5,2017.4 1401.5,2014.7 C1400.4,2012 1397.5,2010.7 1394.8,2011.6 Z" id="路径"></path>
                    <path d="M1557.7,1935.8 C1555.2,1937.2 1554.4,1940.4 1555.8,1942.9 C1557.2,1945.4 1560.4,1946.2 1562.9,1944.8 C1565.4,1943.4 1566.2,1940.2 1564.8,1937.7 C1563.4,1935.2 1560.2,1934.3 1557.7,1935.8 Z" id="路径"></path>
                    <path d="M1705.1,1832.7 C1702.9,1834.5 1702.6,1837.8 1704.5,1840 C1706.4,1842.2 1709.6,1842.5 1711.8,1840.6 C1714,1838.8 1714.3,1835.5 1712.4,1833.3 C1710.5,1831.2 1707.3,1830.9 1705.1,1832.7 Z" id="路径"></path>
                    <path d="M1832.3,1705.7 C1830.5,1707.9 1830.7,1711.2 1832.9,1713 C1835.1,1714.8 1838.4,1714.6 1840.2,1712.4 C1842,1710.2 1841.8,1706.9 1839.6,1705.1 C1837.4,1703.3 1834.1,1703.5 1832.3,1705.7 Z" id="路径"></path>
                    <path d="M1942.6,1556.6 C1940.1,1555.2 1936.9,1556 1935.5,1558.5 C1934.1,1561 1934.9,1564.2 1937.4,1565.6 C1939.9,1567 1943.1,1566.2 1944.5,1563.7 C1945.9,1561.2 1945.1,1558 1942.6,1556.6 Z" id="路径"></path>
                    <circle id="椭圆形" transform="translate(2016.462790, 1397.499200) rotate(-41.882871) translate(-2016.462790, -1397.499200) " cx="2016.46279" cy="1397.4992" r="5.19992203"></circle>
                    <path d="M2064.2,1217.8 C2061.4,1217.3 2058.7,1219.2 2058.2,1222 C2057.7,1224.8 2059.6,1227.5 2062.4,1228 C2065.2,1228.5 2067.9,1226.6 2068.4,1223.8 C2068.9,1221 2067.1,1218.3 2064.2,1217.8 Z" id="路径"></path>
                    <path d="M2079.2,1037.7 C2076.3,1037.7 2074,1040 2074,1042.9 C2074,1045.8 2076.3,1048.1 2079.2,1048.1 C2082.1,1048.1 2084.4,1045.8 2084.4,1042.9 C2084.4,1040.1 2082.1,1037.7 2079.2,1037.7 Z" id="路径"></path>
                    <path d="M2062.7,857.8 C2059.9,858.3 2058,861 2058.5,863.8 C2059,866.6 2061.7,868.5 2064.5,868 C2067.3,867.5 2069.2,864.8 2068.7,862 C2068.2,859.2 2065.5,857.3 2062.7,857.8 Z" id="路径"></path>
                    <path d="M2015.2,683.5 C2012.5,684.5 2011.1,687.5 2012.1,690.2 C2013.1,692.9 2016.1,694.3 2018.8,693.3 C2021.5,692.3 2022.9,689.3 2021.9,686.6 C2020.8,683.9 2017.8,682.5 2015.2,683.5 Z" id="路径"></path>
                    <path d="M1938.1,520.1 C1935.6,521.5 1934.8,524.7 1936.2,527.2 C1937.6,529.7 1940.8,530.5 1943.3,529.1 C1945.8,527.7 1946.6,524.5 1945.2,522 C1943.7,519.5 1940.6,518.6 1938.1,520.1 Z" id="路径"></path>
                    <path d="M1833.8,372.5 C1831.6,374.3 1831.3,377.6 1833.2,379.8 C1835,382 1838.3,382.3 1840.5,380.4 C1842.7,378.6 1843,375.3 1841.1,373.1 C1839.3,371 1836,370.7 1833.8,372.5 Z" id="路径"></path>
                    <path d="M1705.5,245.3 C1703.7,247.5 1703.9,250.8 1706.1,252.6 C1708.3,254.4 1711.6,254.2 1713.4,252 C1715.2,249.8 1715,246.5 1712.8,244.7 C1710.6,242.8 1707.3,243.1 1705.5,245.3 Z" id="路径"></path>
                    <circle id="椭圆形" transform="translate(1561.449970, 144.928410) rotate(-14.999329) translate(-1561.449970, -144.928410) " cx="1561.44997" cy="144.92841" r="5.19984465"></circle>
                    <circle id="椭圆形" transform="translate(1397.768180, 68.435340) rotate(-24.999240) translate(-1397.768180, -68.435340) " cx="1397.76818" cy="68.43534" r="5.19992317"></circle>
                    <path d="M1224.2,16.5 C1221.4,16 1218.7,17.9 1218.2,20.7 C1217.7,23.5 1219.6,26.2 1222.4,26.7 C1225.2,27.2 1227.9,25.3 1228.4,22.5 C1228.9,19.6 1227.1,16.9 1224.2,16.5 Z" id="路径"></path>
                </g>
                <path d="M1035.9,1050 C1033.4,1051.4 1032.6,1054.6 1034,1057.1 C1035.4,1059.6 1038.6,1060.4 1041.1,1059 C1043.6,1057.6 1044.4,1054.4 1043,1051.9 C1041.6,1049.5 1038.4,1048.6 1035.9,1050 Z" id="路径"></path>
            </g>
        </g>
    </g>
</svg>