<?xml version="1.0" encoding="utf-8"?>
<!-- Generator: Adobe Illustrator 24.0.0, SVG Export Plug-In . SVG Version: 6.00 Build 0)  -->
<svg version="1.1" id="图层_1" xmlns="http://www.w3.org/2000/svg" xmlns:xlink="http://www.w3.org/1999/xlink" x="0px" y="0px"
	 viewBox="0 0 2324.4 2324.4" style="enable-background:new 0 0 2324.4 2324.4;" xml:space="preserve">
<style type="text/css">
	.st0{fill:#62BE9C;}
	.st1{fill:#F7F8F8;}
</style>
<g>
	<g>
		<g>
			<polygon class="st0" points="1116.4,2274.6 1116.4,2236.7 1107,2236.7 1107,2288.3 1117.3,2288.3 1149,2250.5 1149,2288.3 
				1158.6,2288.3 1158.6,2236.7 1148.3,2236.7 			"/>
			<polygon class="st0" points="1130.7,2127.6 1130.7,2129.2 1177.1,2129.2 1177.1,2304.3 1179.1,2304.3 1179.1,2129.2 
				1225.6,2129.2 1225.6,2127.6 			"/>
			<rect x="1147.1" y="2120" class="st0" width="62" height="3.7"/>
		</g>
		<polygon class="st1" points="1145.8,2304.3 1132.8,2317.4 1119.7,2304.3 		"/>
	</g>
	<g>
		<g>
			<path class="st0" d="M80.8,1203.8l-13.4,36.6c-4.4-12-9.1-24.7-13.4-36.6h-7.4l-18.8,51.6h10l12.5-34l12.5,34H72l12.5-34l12.5,34
				h10l-18.8-51.6H80.8z"/>
			<polygon class="st0" points="197.7,1174.8 22.6,1174.8 22.6,1176.7 197.7,1176.7 197.7,1223.2 199.2,1223.2 199.2,1128.3 
				197.7,1128.3 			"/>
			<rect x="203.1" y="1144.7" class="st0" width="3.7" height="62"/>
		</g>
		<polygon class="st1" points="17.8,1237.5 4.8,1224.4 17.8,1211.4 		"/>
	</g>
	<g>
		<g>
			<path class="st0" d="M1185.3,71.7h22.4c5.4,0,9.9-4.4,9.9-9.9v-5.7c0-5.4-4.4-9.9-9.9-9.9h-22.4c-5.5,0-9.9,4.4-9.9,9.9v1.8h9.4
				v-1.8c0-0.3,0.2-0.5,0.5-0.5h22.4c0.3,0,0.5,0.2,0.5,0.5v5.7c0,0.3-0.2,0.4-0.5,0.4h-22.4c-5.5,0-9.9,4.4-9.9,9.9v5.7
				c0,5.4,4.4,9.9,9.9,9.9h22.4c5.4,0,9.9-4.4,9.9-9.9V76h-9.4v1.8c0,0.3-0.2,0.5-0.5,0.5h-22.4c-0.3,0-0.5-0.2-0.5-0.5v-5.7
				C1184.8,71.9,1185,71.7,1185.3,71.7z"/>
			<polygon class="st0" points="1152.1,20.2 1150.1,20.2 1150.1,195.3 1103.7,195.3 1103.7,196.9 1198.6,196.9 1198.6,195.3 
				1152.1,195.3 			"/>
			<rect x="1120.1" y="200.8" class="st0" width="62" height="3.7"/>
		</g>
		<polygon class="st1" points="1183.4,20.2 1196.5,7.1 1209.5,20.2 		"/>
	</g>
	<g>
		<g>
			<polygon class="st0" points="2238.4,1225.5 2285.8,1225.5 2285.8,1216 2247.9,1216 2247.9,1204.4 2278.4,1204.4 2278.4,1195 
				2247.9,1195 2247.9,1183.3 2285.8,1183.3 2285.8,1173.9 2238.4,1173.9 			"/>
			<polygon class="st0" points="2131.6,1147.8 2131.6,1101.3 2130,1101.3 2130,1196.2 2131.6,1196.2 2131.6,1149.7 2306.7,1149.7 
				2306.7,1147.8 			"/>
			<rect x="2122.4" y="1117.7" class="st0" width="3.7" height="62"/>
		</g>
		<polygon class="st1" points="2306.7,1181 2319.7,1194.1 2306.7,1207.1 		"/>
	</g>
</g>
</svg>
