<svg id="图层_1" data-name="图层 1" xmlns="http://www.w3.org/2000/svg" xmlns:xlink="http://www.w3.org/1999/xlink" viewBox="0 0 1366 1398"><defs><style>.cls-1{fill:url(#未命名的渐变_13);}</style><radialGradient id="未命名的渐变_13" cx="683" cy="699" r="691.05" gradientUnits="userSpaceOnUse"><stop offset="0" stop-color="#fff" stop-opacity="0"/><stop offset="0.55" stop-color="#fff" stop-opacity="0"/><stop offset="1" stop-color="#fff" stop-opacity="0.3"/><stop offset="1" stop-color="#fff"/></radialGradient></defs><title>大大大</title><path class="cls-1" d="M683,300c101,0,196.3,40.63,268.38,114.39a399.25,399.25,0,0,1,83.69,127.11,416.47,416.47,0,0,1,0,315,399.25,399.25,0,0,1-83.69,127.11C879.3,1057.37,784,1098,683,1098s-196.3-40.63-268.38-114.39A399.25,399.25,0,0,1,330.93,856.5a416.47,416.47,0,0,1,0-315,399.25,399.25,0,0,1,83.69-127.11C486.7,340.63,582,300,683,300M683,0C305.79,0,0,313,0,699s305.79,699,683,699,683-313,683-699S1060.21,0,683,0Z"/></svg>