<svg xmlns="http://www.w3.org/2000/svg" xmlns:xlink="http://www.w3.org/1999/xlink" width="479" height="900"><defs><linearGradient id="c" x1="0%" y1="50%" y2="50%"><stop offset="0%" stop-color="#0069FF"/><stop offset="100%" stop-color="#0069FF"/></linearGradient><path id="a" d="M0 0h479v900H0z"/></defs><g fill="none" fill-rule="evenodd"><mask id="b" fill="#fff"><use xlink:href="#a"/></mask><use fill="#235BDA" xlink:href="#a"/><g stroke="#3270FF" stroke-linejoin="round" stroke-width="10" mask="url(#b)" opacity=".3"><path d="M781.826 146.886L308.891-209.495l-72.167 587.763z"/><path d="M333.264-152.698L274.09 329.227 721.037 139.51z"/><path d="M356.261-94.864l-46.05 375.06 347.835-147.649z"/><path d="M380.633-38.066l-33.057 269.22 249.68-105.983z"/><path d="M404.005 18.731l-20.06 163.382 151.523-64.318z"/><path d="M473.88 111.006l-47.128-35.514-7.191 58.571z"/></g><path fill="url(#c)" d="M84.361 39.621l-82.655.943a1.28 1.28 0 00-.766.176 1.319 1.319 0 00-.455 1.796l42.19 71.912c.013.022.032.037.046.058.043.067.091.129.144.185.01.01.019.023.03.033a1.286 1.286 0 001.565.196c.205-.121.365-.29.474-.487.02-.035.029-.074.044-.111l40.528-72.748a1.322 1.322 0 00-.014-1.31 1.294 1.294 0 00-1.116-.643h-.015" mask="url(#b)"/><path fill="#14C0FF" d="M-15.325-37L-52 26.45l36.675 63.45h73.35L94.7 26.45 58.025-37z" mask="url(#b)" opacity=".194"/><g stroke="#3270FF" stroke-linejoin="round" stroke-width="10" mask="url(#b)" opacity=".3"><path d="M240.172 899.957l-333.685-121.45 61.663 349.704z"/><path d="M-69.371 807.072l50.516 286.493L203.998 906.57z"/><path d="M-46.23 835.638l39.372 223.282 173.68-145.737z"/><path d="M-22.088 864.204l28.224 160.07 124.512-104.478z"/><path d="M1.054 892.77l17.078 96.858 75.342-63.22z"/></g></g></svg>