<svg xmlns="http://www.w3.org/2000/svg" xmlns:xlink="http://www.w3.org/1999/xlink" width="390" height="220" viewBox="0 0 390 220">
    <defs>
        <path id="a" d="M0 .195h24.373v25.843H0z"/>
    </defs>
    <g fill="none" fill-rule="evenodd">
        <path fill="#FFF" d="M293 218l-40.857-53L41 165.426 78.983 218zM258 114.948L220.886 160 192 131.268 223.5 87z"/>
        <path fill="#FFF" d="M264.924 7.121l-.715 57.99a6 6 0 0 1-6 5.927h-53.794l-23.63 21.844L177.71 110l-17.943-5.823-8.924-24.236L162.277 55.5l8.982 7.741V7.68a6 6 0 0 1 5.954-6l81.665-.633a6 6 0 0 1 6.046 6.074zM125 38.69l-4.872-9.346-1.313-7.998-2.414.808-1.83 3.317-11.222-11.736L98.669 12l-.548 2.675 6.094 13.26-2.764 3.564-3.33 2.88L94 38.688l.588 3.062 6.048 7.3 2.713.702 2.263-.701L107.054 51 125 38.69zM112 91.467c0-.55-8.576-8.373-25.728-23.467l-10.564 3.702L75 76.125l2.177 10.746 2.479-.398 1.98 4.994h1.824l6.533-2.493 3.028 5.528L96.048 109l8.21-1.186C109.42 97.467 112 92.018 112 91.467z"/>
        <path fill="#FFF" d="M264.74 6.08l-.981 60.646a5 5 0 0 1-4.985 4.92l-54.607.152-32.86 30.61c2.985-7.823 4.478-12.959 4.481-15.406.002-1.368-4.456-1.976-4.455-2.99.001-.957-1.687-1.46-2.349-2.625-.428-.756-.425-1.79.747-3.407 6.006 0 6.006-4.925 3.434-6.82-.45-.333-1.828 1.53-1.828.956-.001-7.028-.011-12.943-.03-17.747-.037-9.887.099-26.033.408-48.438a5 5 0 0 1 5-4.931h83.026a5 5 0 0 1 5 5.08z"/>
        <path stroke="#18263C" stroke-linecap="round" stroke-linejoin="round" stroke-width=".896" d="M191.341 83.247l12.826-11.45 54.913-.647a5 5 0 0 0 4.94-4.938l.74-60.131a5 5 0 0 0-5.019-5.061l-83.453.321a5 5 0 0 0-4.98 5v43.524"/>
        <path fill="#00D0B6" d="M201.161 18.089a5.073 5.073 0 0 1-7.111-.932 5.067 5.067 0 0 1 .932-7.107 5.073 5.073 0 0 1 7.111.93 5.068 5.068 0 0 1-.932 7.109"/>
        <path fill="#FFBA6B" d="M216.161 18.089a5.072 5.072 0 0 1-7.11-.931 5.067 5.067 0 0 1 .931-7.108 5.072 5.072 0 0 1 7.11.93 5.068 5.068 0 0 1-.93 7.109"/>
        <path fill="#FF6734" d="M187.018 18.089a5.073 5.073 0 0 1-7.11-.931 5.067 5.067 0 0 1 .93-7.108 5.072 5.072 0 0 1 7.112.93 5.068 5.068 0 0 1-.932 7.109"/>
        <path fill="#00BAFF" d="M216.652 183.348l35.782-43.956-8.4-6.831-28.918 35.832"/>
        <path fill="#10BEFF" d="M89.39 95.506c-5.396 4.903-22.243 54.673-22.243 54.673l24.796-8.019 8.022-17.86 5.835 19.682s21.895-24.16 18.232-27.7c-21.88-21.14-24.504-3.543-27.349-10.935-1.823-4.738-.729-7.29-.364-10.57-1.094-.729-2.918-2.916-6.929.729"/>
        <path fill="#FFB100" d="M172.894 145.805l51.78 20.047-48.498-72.533s-5.55 20.179-9.845 11.299c-1.051-2.172.729-9.841.729-9.841l-3.282-6.56c-10.21-1.095-7.293-9.113-7.293-9.113l-4.376-1.094 2.188-5.467-31.006-35.019-17.138 14.945 60.542 68.916s4.376 21.869 6.199 24.42"/>
        <path fill="#133C9A" stroke="#18263C" d="M224.674 165.852s-67.46-31.346-83.14-22.234c-15.68 9.112-5.105 22.963-5.105 22.963"/>
        <path fill="#0C296E" stroke="#18263C" d="M157.579 165.487s-67.46-31.345-83.139-22.233c-15.68 9.112-5.105 22.963-5.105 22.963"/>
        <path fill="#FFF" d="M81.368 218.338h211.859l-39.746-52.486H41.62z"/>
        <path fill="#82A7FC" d="M184.777 32h67.551a2.5 2.5 0 0 0 0-5h-67.552a2.5 2.5 0 0 0 0 5zM184.777 45h67.551a2.5 2.5 0 0 0 0-5h-67.552a2.5 2.5 0 0 0 0 5zM212.329 58h40a2.5 2.5 0 0 0 0-5h-40a2.5 2.5 0 0 0 0 5zM203.477 201.284h60.953l-17.477-22.776H186zM209.385 210.563h60.952l-2.286-3.374h-60.953z"/>
        <path fill="#FFBA6B" d="M262.864 84.29c-2.111-4.74-7.666-6.87-12.407-4.758-4.74 2.11-6.871 7.663-4.76 12.401 2.112 4.738 7.667 6.869 12.407 4.758 4.74-2.11 6.872-7.663 4.76-12.402"/>
        <path fill="#F76865" d="M54.046 36.525c-2.472-5.548-8.973-8.042-14.521-5.57-5.548 2.47-8.042 8.972-5.57 14.52 2.47 5.548 8.972 8.042 14.52 5.57 5.548-2.47 8.042-8.972 5.57-14.52"/>
        <path stroke="#18263C" stroke-linecap="round" stroke-linejoin="round" stroke-width=".896" d="M122.212 210.47l9.839 4.944-3.461-10.314"/>
        <path fill="#FFF" d="M83 119.367l-8.241-.364L65.005 115l-6.114.205-3.48 1.979L54 122.582l1.411 7.602 3.48 8.53 3.534 6.866 2.58 1.42 2.162-3.475 1.678 2.055 1.328.673 1.16-3.163 1.868 2.49 2.872.673 1.506-1.157-.466-2.739 2.871 2.74h1.547l.915-2.74-1.894-6.501-4.882-10.4h2.89l2.97-2.168z"/>
        <path fill="#FFC200" d="M74.42 136.567l-6.699 5.331 53.02 66.554 6.699-5.331z"/>
        <g transform="matrix(-1 0 0 1 390 193.06)">
            <mask id="b" fill="#fff">
                <use xlink:href="#a"/>
            </mask>
            <path fill="#F76865" d="M24.223 10.18a.396.396 0 0 0-.101-.68L.576.238A.397.397 0 0 0 .005.65l3.754 25.045c.001.007.005.013.006.021.005.024.011.047.02.068l.005.013a.397.397 0 0 0 .611.154c.01-.008.016-.018.025-.027L24.223 10.18z" mask="url(#b)"/>
        </g>
        <path stroke="#18263C" stroke-linecap="round" stroke-linejoin="round" stroke-width=".896" d="M122.579 42.064a1.457 1.457 0 1 1 1.16 2.677 1.457 1.457 0 0 1-1.16-2.677zM158.71 62.307l-6.447 15.527 3.995 1.189s-1.251 6.553 3.51 7.735"/>
        <path fill="#18263C" d="M174.893 72.88c8.486-10.338-3.826-16.352-12.902-20.404-5.47 4.95-4.04 10.604-4.04 10.604s7.373 2.077 7.845 3.45l2.99 8.703s1.127-1.562 2.578-2.934c2.127-2.01 3.53.58 3.53.58M162.172 72.383a1.712 1.712 0 1 1-3.076-1.503 1.712 1.712 0 0 1 3.076 1.503M82.66 80.026a1.824 1.824 0 0 1-2.583-2.574 1.824 1.824 0 0 1 2.582 2.574"/>
        <path stroke="#18263C" stroke-linecap="round" stroke-linejoin="round" stroke-width=".896" d="M171.207 71.841c1.976-1.702 4.596-.042 3.858 3.028s-5.334 3.111-5.334 3.111l-1.354 2.77s1.909 3.246 6.705 5.644M76.195 125.569c7.234-.244 8.263-6.766 5.046-6.234-4.332.716-8.546-.743-11.095-1.94-2.691-1.263-6.645-3.665-11.75-1.842-7.839 2.798-3.283 15.673-1.095 20.41 1.166 2.526 5.73 11.774 8.428 11.252 2.88-.557.9-11.507-1.004-10.824-1.348.485 3.688 11.526 5.915 10.01 2.227-1.514-1.082-12.74-2.795-12.755-1.25-.01 0 0 2.54 7.042 2.538 7.041 6.328 6.718 7.17 4.642.842-2.076-4.922-12.38-5.46-12.069-1.244.715 7.606 14.116 9.655 11.971 2.048-2.145-2.076-10.846-3.418-14.256-.905-2.301-2.26-5.18-3.985-7.893M98.514 72.98c-.386-11.615-8.882-13.237-13.541-12.698-4.66.538-12.669 6.536-9.524 18.668.694 2.68 1.798 7.405 1.798 7.405l2.142-.36s1.347 4.728 3.044 4.993c1.927.3 7.287-2.482 7.287-2.482"/>
        <path stroke="#18263C" stroke-linecap="round" stroke-linejoin="round" stroke-width=".896" d="M75.444 75.648s3.234-.253 4.69-3.435c0 0 9.24 6.222 12.398 4.28 0 0 3.434-1.913 3.988 2.264.553 4.177-4.995 2.97-4.995 2.97"/>
        <path fill="#18263C" d="M74.818 75.203s-1.403-13.747 10.69-15.011c11.326-1.185 14.65 8.66 15.187 12.715.537 4.056 4.975-1.026 12.397 1.094 5.105 1.458 3.282 7.29 8.022 9.476 6.411 2.958 23.338-10.205 28.443 9.842 2.414 9.478-4.011 21.505-4.011 21.505s-11.622-20.278-30.995-24.057C99.6 87.851 93.562 81.77 93.562 81.77s3.721.46 3.054-3.392c-.667-3.853-5.496-1.661-5.496-1.661s-7.463-1.35-10.772-4.647c0 0-3.702 5.076-5.53 3.133"/>
        <path fill="#BACEFD" d="M330.203 178.39l-36.976 40.313-30.995-41.187z"/>
        <path stroke="#18263C" stroke-linecap="round" stroke-linejoin="round" stroke-width=".896" d="M223.215 164.758s-9.718-4.43-22.595-9.388M78.086 119.198s6.28-14.767 8.387-19.683c1.094-2.55 2.188-5.103 8.022-6.56M99.6 125.03l-7.657 17.13M167.06 94.777s-5.47 16.037 5.105 49.57M96.319 94.777s-2.918 9.841 7.657 43.374M165.966 120.291l-59.813-68.187L123.29 37.16l29.913 33.925M132.407 42.627l-18.232 14.58"/>
        <g stroke="#18263C" stroke-linecap="round" stroke-linejoin="round" stroke-width=".896">
            <path d="M108.678 35.852c6.874 6.528 2.232 9.146.687 7.903-12.374-9.964-7.561-14.43-4.124-16.492 3.295-1.976 7.11 1.52 4.124 4.467-2.678 2.644-13.578-16.006-10.999-18.897 3.178-3.562 14.362 11.962 14.362 11.962"/>
            <path d="M100.429 31.73s-4.687 3.029-2.063 6.527c3.094 4.123 6.188 9.62 10.312 7.215"/>
            <path d="M96.992 35.509s-4.688 3.029-2.063 6.528c3.094 4.123 6.187 9.62 10.312 7.215l1.53 1.908M122.938 36.823s-4.74-9.112-4.011-13.486c.645-3.872-5.795-1.019-5.105 6.56.364 4.01 2.917 7.655 2.917 7.655"/>
        </g>
        <path stroke="#18263C" stroke-linecap="round" stroke-linejoin="round" stroke-width=".896" d="M222.85 158.562l35.783-43.955-33.941-27.605-9.135 11.42"/>
        <path fill="#10BEFF" d="M103.63 109.72c4.867 5.592 14.806 13.065 14.47 13.589-4.868 5.28-26.325 34.715-26.325 34.715l20.342 16.772s22.925-27.233 31.988-38.468c9.117-11.3 5.47-18.588 2.188-22.234 0 0-29.17-33.532-41.204-27.336-12.033 6.196-4.74 18.589-4.74 18.589"/>
        <path stroke="#18263C" stroke-linecap="round" stroke-linejoin="round" stroke-width=".896" d="M98.091 150.437l22.533 18.455M98.523 155.083a1.459 1.459 0 1 1 1.158 2.679 1.459 1.459 0 0 1-1.158-2.679zM91.961 158.198s-.769.715-3.953 3.861c-3.185 3.146-12.18 2.788-13.59 5.007-1.41 2.218 6.655.802 7.181 4.189.587 3.782-9.998 10.528-7.213 12.421 2.784 1.894 12.338-7.545 11.168-9.036-1.17-1.492-10.4 12.14-7.858 14.316 2.542 2.176 12.66-10.207 11.771-11.456-.887-1.25-8.908 10.97-6.648 12.905 2.26 1.934 11.934-9.36 11.046-10.61-.888-1.248-7.71 10.556-5.964 11.535 3.309 1.852 20.104-19.647 20.104-19.647"/>
        <path fill="#FFB100" d="M175.082 109.356c4.866 5.591 14.806 13.064 14.47 13.589-4.868 5.28-26.325 34.714-26.325 34.714l20.341 16.773s22.925-27.233 31.99-38.468c9.116-11.3 5.469-18.589 2.187-22.234 0 0-29.171-33.533-41.205-27.336-12.032 6.196-4.74 18.588-4.74 18.588"/>
        <path stroke="#18263C" stroke-linecap="round" stroke-linejoin="round" stroke-width=".896" d="M169.543 150.073l22.533 18.454"/>
        <path fill="#00D0B6" d="M181.97 218.064l17.582-14.052-47.823-60.256-17.583 14.051z"/>
        <path stroke="#18263C" stroke-linecap="round" stroke-linejoin="round" stroke-width=".896" d="M169.975 154.719a1.458 1.458 0 1 1 1.158 2.677 1.458 1.458 0 0 1-1.158-2.677zM163.413 157.833s-.769.715-3.953 3.862c-3.185 3.146-12.18 2.788-13.59 5.006-1.411 2.218 6.655.803 7.18 4.19.588 3.78-9.997 10.527-7.212 12.42 2.784 1.894 12.338-7.545 11.167-9.036-1.17-1.491-10.4 12.14-7.858 14.316 2.542 2.176 12.66-10.206 11.772-11.456-.888-1.249-8.908 10.971-6.649 12.905 2.26 1.934 11.935-9.36 11.047-10.609-.888-1.249-7.71 10.556-5.964 11.534 3.309 1.853 20.104-19.646 20.104-19.646"/>
        <path stroke="#18263C" stroke-linecap="round" stroke-linejoin="round" stroke-width=".896" d="M175.082 108.992c4.866 5.59 14.806 13.064 14.47 13.588-4.868 5.28-26.325 34.715-26.325 34.715l20.341 16.772s22.925-27.233 31.99-38.468c9.116-11.3 5.469-18.588 2.187-22.234 0 0-29.171-33.532-41.205-27.336-12.032 6.196-4.74 18.589-4.74 18.589M103.63 109.356c4.867 5.591 14.806 13.064 14.47 13.589-4.868 5.28-26.325 34.714-26.325 34.714l20.342 16.773s22.925-27.233 31.988-38.468c9.117-11.3 5.47-18.589 2.188-22.234 0 0-29.17-33.532-41.204-27.336-12.033 6.196-4.74 18.588-4.74 18.588"/>
        <path stroke="#FFF" stroke-linecap="round" stroke-linejoin="round" stroke-width=".896" d="M191.743 205.073l-8.602 7.331M185.337 204.306l-5.272 4.493M182.498 200.977l-5.272 4.493M182.753 194.534l-8.602 7.33M176.862 193.807l-5.55 4.729"/>
        <path stroke="#18263C" stroke-linecap="round" stroke-linejoin="round" stroke-width=".896" d="M374.178 218.338H62.406M273.536 184.44c1.094-1.821 19.327-38.27 27.348-38.27 8.023 0 41.935 69.253 29.901 69.253-12.033 0 5.835-32.804 15.316-33.898 9.48-1.094 16.408 18.224 16.408 18.224"/>
        <path fill="#00D0B6" d="M261.891 165.429l19.609-6.89-6.894-19.6-19.608 6.89z"/>
        <path fill="#F80" d="M.455 194.64l17.695 10.902 10.893-17.692-17.694-10.902z"/>
        <path stroke="#18263C" stroke-linecap="round" stroke-linejoin="round" stroke-width=".896" d="M247.243 115.224L225 97M244.243 119.225L222 101M232.492 116.299L219 105M121.844 204.488l-16.41-19.683"/>
        <path stroke="#FFF" stroke-linecap="round" stroke-linejoin="round" stroke-width=".896" d="M214.701 115.394s-3.853 3.286-2.294 7.82c1.559 4.534 5.406 5.323 5.406 5.323M143.96 115.394s-3.853 3.286-2.294 7.82c1.559 4.534 5.406 5.323 5.406 5.323"/>
        <path stroke="#18263C" stroke-linecap="round" stroke-linejoin="round" stroke-width=".896" d="M288.487 212.142l-35.371-46.29h-57.614M63.5 165.852H41.257l39.746 52.486"/>
        <path stroke="#FFF" stroke-linecap="round" stroke-linejoin="round" stroke-width=".896" d="M310.13 186.944h-29.115M306.332 192.848h-21.098M301.69 198.753h-13.924"/>
    </g>
</svg>
